<?xml version="1.0" encoding="UTF-8"?>
<svg id="Layer_1" data-name="Layer 1" xmlns="http://www.w3.org/2000/svg" viewBox="0 0 487.31 230.44">
  <defs>
    <style>
      .cls-1, .cls-2, .cls-3, .cls-4, .cls-5 {
        font-family: Consolas, Consolas;
      }

      .cls-6, .cls-7, .cls-8, .cls-9, .cls-10 {
        font-family: Helvetica-Light, Helvetica;
        font-size: 22.24px;
        font-weight: 300;
      }

      .cls-11, .cls-7, .cls-3, .cls-12, .cls-13, .cls-14, .cls-4, .cls-15, .cls-16 {
        fill: #231f20;
      }

      .cls-11, .cls-4 {
        font-size: 8px;
      }

      .cls-17, .cls-18, .cls-19, .cls-20, .cls-21 {
        font-family: Helvetica, Helvetica;
      }

      .cls-17, .cls-22, .cls-12, .cls-5, .cls-23, .cls-16 {
        font-size: 9px;
      }

      .cls-24, .cls-25, .cls-26, .cls-27, .cls-28, .cls-29, .cls-30, .cls-31 {
        stroke-miterlimit: 10;
      }

      .cls-24, .cls-25, .cls-26, .cls-28, .cls-29, .cls-30, .cls-31 {
        fill: none;
      }

      .cls-24, .cls-25, .cls-28, .cls-29, .cls-30, .cls-31 {
        stroke: #3953a4;
      }

      .cls-24, .cls-30, .cls-31 {
        stroke-width: 1.49px;
      }

      .cls-25, .cls-28, .cls-29 {
        stroke-width: 1.5px;
      }

      .cls-2 {
        font-size: 9.88px;
        letter-spacing: -.08em;
      }

      .cls-32 {
        letter-spacing: 0em;
      }

      .cls-26 {
        stroke: #231f20;
      }

      .cls-33 {
        opacity: .3;
      }

      .cls-33, .cls-34, .cls-35, .cls-13 {
        stroke-width: 0px;
      }

      .cls-33, .cls-35 {
        fill: #ed1c24;
      }

      .cls-18, .cls-14 {
        font-size: 10px;
      }

      .cls-3 {
        font-size: 11px;
      }

      .cls-36 {
        letter-spacing: 0em;
      }

      .cls-37 {
        letter-spacing: -.12em;
      }

      .cls-38 {
        letter-spacing: -.12em;
      }

      .cls-39 {
        letter-spacing: 0em;
      }

      .cls-22, .cls-12, .cls-40, .cls-41, .cls-42, .cls-43 {
        font-weight: 700;
      }

      .cls-22, .cls-12, .cls-40, .cls-43 {
        font-family: Helvetica-Bold, Helvetica;
      }

      .cls-34 {
        fill: #6d6e71;
      }

      .cls-44 {
        letter-spacing: -.16em;
      }

      .cls-45 {
        letter-spacing: -.16em;
      }

      .cls-27 {
        fill: #f1f0f0;
        stroke: #cccccb;
        stroke-width: .5px;
      }

      .cls-28 {
        stroke-dasharray: 0 0 2.02 2.02;
      }

      .cls-46 {
        letter-spacing: .03em;
      }

      .cls-29 {
        stroke-dasharray: 0 0 1.97 1.97;
      }

      .cls-47 {
        letter-spacing: 0em;
      }

      .cls-8 {
        letter-spacing: -.04em;
      }

      .cls-40 {
        font-size: 7px;
      }

      .cls-41 {
        fill: #39b54a;
      }

      .cls-41, .cls-42 {
        font-family: Consolas-Bold, Consolas;
        font-size: 9.58px;
        letter-spacing: .2em;
      }

      .cls-14 {
        font-family: MyriadPro-Regular, 'Myriad Pro';
      }

      .cls-20 {
        letter-spacing: -.02em;
      }

      .cls-48 {
        opacity: .2;
      }

      .cls-9 {
        letter-spacing: -.06em;
      }

      .cls-21 {
        letter-spacing: .02em;
      }

      .cls-10 {
        letter-spacing: .08em;
      }

      .cls-5 {
        letter-spacing: -.2em;
      }

      .cls-30 {
        stroke-dasharray: 0 0 1.9 1.9;
      }

      .cls-31 {
        stroke-dasharray: 0 0 1.92 1.92;
      }

      .cls-42 {
        fill: #1d1f21;
      }

      .cls-23 {
        letter-spacing: .14em;
      }

      .cls-23, .cls-49 {
        font-family: Helvetica-Oblique, Helvetica;
        font-style: oblique;
      }
    </style>
  </defs>
  <text class="cls-16" transform="translate(227.73 8.25)"><tspan class="cls-43" x="0" y="0" xml:space="preserve">Step 1:  </tspan><tspan class="cls-19" x="35.01" y="0">Approximate shortest superstring </tspan><tspan class="cls-43" x="0" y="10.8" xml:space="preserve">Step 2:  </tspan><tspan class="cls-19" x="35.01" y="10.8">Optimize </tspan><tspan class="cls-49" x="73.02" y="10.8">k</tspan><tspan class="cls-19" x="77.52" y="10.8">-mer</tspan><tspan class="cls-21" x="96.01" y="10.8"> </tspan><tspan class="cls-19" x="98.69" y="10.8">mask for max 1</tspan><tspan class="cls-20" x="160.21" y="10.8">’</tspan><tspan class="cls-19" x="162.05" y="10.8">s </tspan></text>
  <text class="cls-16" transform="translate(227.73 77.55)"><tspan class="cls-43" x="0" y="0" xml:space="preserve">Step 3:  </tspan><tspan class="cls-19" x="35.01" y="0">Compute MBW</tspan><tspan class="cls-20" x="96.02" y="0">T</tspan></text>
  <text class="cls-15" transform="translate(227.73 128.09)"><tspan class="cls-22" x="0" y="0" xml:space="preserve">Step 4:  </tspan><tspan class="cls-17" x="35.01" y="0">Compute </tspan><tspan class="cls-23" x="74.03" y="0">k</tspan><tspan class="cls-17" x="79.79" y="0">LCP(</tspan><tspan class="cls-5" x="100.29" y="0">S</tspan><tspan class="cls-2" x="103.44" y="0">&apos;</tspan><tspan class="cls-17" x="108.08" y="0">)</tspan><tspan class="cls-40"><tspan x="0" y="8.4">(optional)</tspan></tspan></text>
  <text class="cls-16" transform="translate(227.73 180.83)"><tspan class="cls-43" x="0" y="0" xml:space="preserve">Step 5:  </tspan><tspan class="cls-19" x="35.01" y="0">Build low-level rank/select data structures </tspan></text>
  <text class="cls-16" transform="translate(0 204.52)"><tspan class="cls-43" x="0" y="0" xml:space="preserve">Output:   </tspan><tspan class="cls-19" x="39.99" y="0">FMSI index: </tspan></text>
  <g>
    <text class="cls-12" transform="translate(0 8.47)"><tspan x="0" y="0">Input: </tspan></text>
    <text class="cls-3" transform="translate(29.77 9.01)"><tspan x="0" y="0" xml:space="preserve"> K={CAG, GGT, GTA, TAG}</tspan></text>
  </g>
  <g>
    <line class="cls-26" x1="172.1" y1="6.25" x2="238.09" y2="37.66"/>
    <path class="cls-13" d="M237.28,37.28l-.21-2.1h.07s2.15,2.31,2.15,2.31c.83.64,1.65,1.29,2.48,1.93-1.02-.24-2.04-.47-3.06-.71l-3.15-.21-.04-.05,1.77-1.16Z"/>
  </g>
  <g>
    <line class="cls-26" x1="175.78" y1="191.93" x2="241.77" y2="160.51"/>
    <path class="cls-13" d="M176.59,191.54l.21-2.1h-.07s-2.15,2.31-2.15,2.31c-.83.64-1.65,1.29-2.48,1.93,1.02-.24,2.04-.47,3.06-.71l3.15-.21.04-.05-1.77-1.16Z"/>
  </g>
  <g>
    <rect class="cls-27" x="44.73" y="28.93" width="123.12" height="138.59"/>
    <g>
      <g class="cls-48">
        <rect class="cls-35" x="149.84" y="29.44" width="6.74" height="134.99"/>
      </g>
      <g class="cls-48">
        <rect class="cls-35" x="54.67" y="32.53" width="6.74" height="134.99"/>
      </g>
      <text class="cls-42" transform="translate(49.67 40.94)"><tspan x="0" y="0">$ C A G G T A G</tspan><tspan x="0" y="17.04">A G $ C A G G T</tspan><tspan x="0" y="34.07">A G G T A G $ C</tspan><tspan x="0" y="51.11">C A G G T A G $</tspan><tspan x="0" y="68.15">G $ C A G G T A</tspan><tspan x="0" y="85.18">G G T A G $ C A</tspan><tspan x="0" y="102.22">G T A G $ C A G</tspan><tspan x="0" y="119.26">T A G $ C A G G</tspan></text>
      <text class="cls-41" transform="translate(55.81 45.25)"><tspan x="0" y="0">$ 1 0 1 1 1 0 0</tspan><tspan x="0" y="17.04">0 0 $ 1 0 1 1 1</tspan><tspan x="0" y="34.07">0 1 1 1 0 0 $ 1</tspan><tspan x="0" y="51.11">1 0 1 1 1 0 0 $</tspan><tspan x="0" y="68.15">0 $ 1 0 1 1 1 0</tspan><tspan x="0" y="85.18">1 1 1 0 0 $ 1 0</tspan><tspan x="0" y="102.22">1 1 0 0 $ 1 0 1</tspan><tspan x="0" y="119.26">1 0 0 $ 1 0 1 1</tspan></text>
      <g>
        <polyline class="cls-25" points="164.83 98.34 164.83 99.34 163.83 99.34"/>
        <line class="cls-28" x1="161.81" y1="99.34" x2="49.46" y2="99.34"/>
        <polyline class="cls-25" points="48.45 99.34 47.45 99.34 47.45 98.34"/>
        <line class="cls-29" x1="47.45" y1="96.38" x2="47.45" y2="85.57"/>
        <polyline class="cls-25" points="47.45 84.58 47.45 83.58 48.45 83.58"/>
        <line class="cls-28" x1="50.48" y1="83.58" x2="162.82" y2="83.58"/>
        <polyline class="cls-25" points="163.83 83.58 164.83 83.58 164.83 84.58"/>
        <line class="cls-29" x1="164.83" y1="86.55" x2="164.83" y2="97.36"/>
      </g>
    </g>
  </g>
  <g>
    <text class="cls-7" transform="translate(263.46 47.59)"><tspan x="0" y="0" xml:space="preserve">(        ) =:</tspan><tspan class="cls-38" x="91.3" y="0"> </tspan><tspan x="94.81" y="0">( ) </tspan></text>
    <g>
      <path class="cls-13" d="M278.39,37.58c-.5.21-1.03.31-1.59.31-.89,0-1.58-.27-2.05-.8-.48-.53-.72-1.32-.72-2.36,0-.5.07-.96.2-1.37.13-.41.32-.76.56-1.04.25-.28.54-.5.89-.66.35-.15.74-.23,1.17-.23.29,0,.56.02.82.07s.49.13.72.23v.84c-.23-.13-.46-.22-.71-.29s-.51-.1-.8-.1-.56.06-.8.17c-.24.11-.44.27-.61.48-.17.21-.3.47-.39.77-.09.3-.14.65-.14,1.04,0,.82.17,1.43.5,1.85.33.42.82.62,1.46.62.27,0,.53-.03.78-.09.25-.06.49-.15.71-.26v.81Z"/>
      <path class="cls-13" d="M284.41,37.82h-.94l-.44-1.38h-2.62l-.44,1.38h-.89l2.09-6.31h1.18l2.06,6.31ZM282.79,35.67l-1.07-3.37-1.07,3.37h2.13Z"/>
      <path class="cls-13" d="M289.31,32.59c-.24-.13-.48-.22-.72-.29-.25-.07-.52-.1-.81-.1-.33,0-.63.06-.89.18-.26.12-.48.29-.66.5-.18.22-.32.48-.41.78s-.14.64-.14,1.01.04.73.12,1.04.2.56.36.78c.16.21.37.38.63.49.26.11.56.17.92.17.06,0,.13,0,.2,0,.07,0,.14-.02.21-.03.07-.01.14-.02.21-.04.07-.02.12-.03.18-.05v-2.01h-1.29v-.71h2.14v3.22c-.13.06-.27.12-.42.16s-.3.09-.45.12c-.15.03-.31.06-.46.07-.15.02-.3.02-.44.02-.43,0-.82-.07-1.17-.2s-.64-.34-.88-.6c-.24-.27-.43-.6-.56-.99-.13-.4-.2-.85-.2-1.38s.07-.98.22-1.39c.15-.41.35-.76.61-1.04.26-.29.58-.5.95-.65.37-.15.77-.22,1.22-.22.28,0,.55.02.81.07s.5.13.74.24v.85Z"/>
      <path class="cls-13" d="M294.75,32.59c-.24-.13-.48-.22-.72-.29-.25-.07-.52-.1-.81-.1-.33,0-.63.06-.89.18-.26.12-.48.29-.66.5-.18.22-.32.48-.41.78s-.14.64-.14,1.01.04.73.12,1.04.2.56.36.78c.16.21.37.38.63.49.26.11.56.17.92.17.06,0,.13,0,.2,0,.07,0,.14-.02.21-.03.07-.01.14-.02.21-.04.07-.02.12-.03.18-.05v-2.01h-1.29v-.71h2.14v3.22c-.13.06-.27.12-.42.16s-.3.09-.45.12c-.15.03-.31.06-.46.07-.15.02-.3.02-.44.02-.43,0-.82-.07-1.17-.2s-.64-.34-.88-.6c-.24-.27-.43-.6-.56-.99-.13-.4-.2-.85-.2-1.38s.07-.98.22-1.39c.15-.41.35-.76.61-1.04.26-.29.58-.5.95-.65.37-.15.77-.22,1.22-.22.28,0,.55.02.81.07s.5.13.74.24v.85Z"/>
      <path class="cls-13" d="M300.34,32.24h-1.87v5.57h-.87v-5.57h-1.87v-.73h4.6v.73Z"/>
      <path class="cls-13" d="M306.14,37.82h-.94l-.44-1.38h-2.62l-.44,1.38h-.89l2.09-6.31h1.18l2.06,6.31ZM304.52,35.67l-1.07-3.37-1.07,3.37h2.13Z"/>
      <path class="cls-13" d="M311.05,32.59c-.24-.13-.48-.22-.72-.29-.25-.07-.52-.1-.81-.1-.33,0-.63.06-.89.18-.26.12-.48.29-.66.5-.18.22-.32.48-.41.78s-.14.64-.14,1.01.04.73.12,1.04.2.56.36.78c.16.21.37.38.63.49.26.11.56.17.92.17.06,0,.13,0,.2,0,.07,0,.14-.02.21-.03.07-.01.14-.02.21-.04.07-.02.12-.03.18-.05v-2.01h-1.29v-.71h2.14v3.22c-.13.06-.27.12-.42.16s-.3.09-.45.12c-.15.03-.31.06-.46.07-.15.02-.3.02-.44.02-.43,0-.82-.07-1.17-.2s-.64-.34-.88-.6c-.24-.27-.43-.6-.56-.99-.13-.4-.2-.85-.2-1.38s.07-.98.22-1.39c.15-.41.35-.76.61-1.04.26-.29.58-.5.95-.65.37-.15.77-.22,1.22-.22.28,0,.55.02.81.07s.5.13.74.24v.85Z"/>
      <path class="cls-13" d="M314.48,30.6h.7l-.13.94c.17.02.34.04.5.06.17.03.33.06.47.09v.74c-.18-.04-.36-.08-.54-.12-.18-.03-.36-.06-.53-.07l-.27,2.06c.21.08.43.17.64.27.21.1.4.21.57.35.17.13.31.29.41.48.1.18.16.4.16.66,0,.27-.05.51-.16.72s-.26.39-.46.53c-.2.15-.43.26-.71.34s-.58.13-.91.15l-.16,1.15h-.7l.16-1.15c-.26-.02-.51-.05-.75-.08-.24-.04-.44-.08-.62-.12v-.8c.2.07.42.13.66.17.24.04.51.08.8.09l.28-2.17c-.21-.08-.42-.17-.62-.26-.2-.09-.38-.21-.54-.34s-.29-.28-.39-.46-.15-.39-.15-.63c0-.2.04-.4.12-.59.08-.19.21-.37.39-.53.18-.16.4-.28.67-.39.27-.1.59-.16.97-.18l.12-.92ZM314.27,32.24c-.4.04-.7.13-.88.28s-.28.35-.28.59c0,.22.08.4.23.55.15.14.38.27.68.39l.25-1.81ZM314.32,37.06c.43-.03.75-.13.95-.29.2-.16.3-.38.3-.66,0-.12-.02-.22-.06-.31-.04-.09-.1-.17-.19-.25-.08-.07-.19-.14-.31-.21s-.27-.13-.44-.19l-.25,1.91Z"/>
      <path class="cls-13" d="M370.77,36.11c0,.3-.06.56-.18.79-.12.23-.29.41-.51.56-.22.15-.48.26-.79.34-.31.07-.65.11-1.02.11-.17,0-.33,0-.5-.02-.17-.01-.32-.03-.48-.05-.15-.02-.3-.04-.43-.07-.13-.03-.26-.05-.37-.08v-.83c.24.09.51.16.81.21.3.05.64.08,1.03.08.28,0,.51-.02.71-.06s.35-.11.48-.19c.12-.09.21-.19.27-.31.06-.12.08-.26.08-.42,0-.17-.05-.32-.14-.44-.1-.12-.22-.23-.37-.32-.16-.09-.33-.18-.53-.26-.2-.08-.4-.16-.61-.24-.21-.08-.41-.17-.61-.27-.2-.1-.37-.21-.53-.35-.15-.13-.28-.29-.37-.47s-.14-.39-.14-.64c0-.22.04-.43.13-.64s.23-.4.42-.56c.19-.16.43-.29.73-.39.3-.1.65-.15,1.06-.15.11,0,.22,0,.34.01.12,0,.25.02.38.04.13.02.25.04.38.06s.24.05.34.07v.77c-.25-.07-.5-.12-.74-.16-.25-.04-.49-.06-.72-.06-.49,0-.85.08-1.09.25-.23.16-.35.38-.35.66,0,.17.05.32.14.44s.22.23.37.33.33.18.53.26c.2.08.4.16.61.24.21.08.41.18.61.27.2.1.37.22.53.35s.28.3.37.48c.09.18.14.4.14.65Z"/>
      <path class="cls-13" d="M278.4,49.68h-3.96v-.78h1.62v-4.6l-1.51.82-.31-.71,2.01-1.06h.74v5.55h1.41v.78Z"/>
      <path class="cls-13" d="M284.03,46.52c0,.48-.05.92-.14,1.32-.1.4-.24.74-.44,1.02s-.44.5-.73.66c-.29.16-.63.23-1.03.23-.34,0-.64-.06-.92-.19-.28-.13-.51-.32-.71-.59s-.35-.6-.45-1.01c-.11-.41-.16-.89-.16-1.45,0-.48.05-.92.15-1.32.1-.4.24-.74.44-1.03s.44-.5.73-.66c.29-.16.63-.23,1.02-.23.34,0,.65.06.92.19.28.13.51.32.71.59.2.27.35.6.45,1.01.11.41.16.89.16,1.45ZM280.3,46.5c0,.1,0,.2,0,.3,0,.1,0,.2.02.29l2.67-1.97c-.05-.16-.11-.31-.18-.45-.07-.13-.16-.25-.27-.35-.1-.1-.22-.17-.35-.23-.13-.05-.28-.08-.44-.08-.22,0-.42.05-.6.16-.18.11-.33.26-.46.48-.13.21-.22.47-.29.78s-.1.67-.1,1.08ZM283.19,46.55c0-.11,0-.22-.01-.33s-.02-.21-.03-.32l-2.67,1.98c.05.17.11.32.18.46s.16.26.27.36c.1.1.22.18.36.24.13.06.29.08.46.08.22,0,.42-.05.6-.16.18-.11.33-.26.46-.47.13-.21.22-.47.29-.78.07-.31.1-.67.1-1.08Z"/>
      <path class="cls-13" d="M289.27,49.68h-3.96v-.78h1.62v-4.6l-1.51.82-.31-.71,2.01-1.06h.74v5.55h1.41v.78Z"/>
      <path class="cls-13" d="M294.7,49.68h-3.96v-.78h1.62v-4.6l-1.51.82-.31-.71,2.01-1.06h.74v5.55h1.41v.78Z"/>
      <path class="cls-13" d="M300.14,49.68h-3.96v-.78h1.62v-4.6l-1.51.82-.31-.71,2.01-1.06h.74v5.55h1.41v.78Z"/>
      <path class="cls-13" d="M305.77,46.52c0,.48-.05.92-.14,1.32-.1.4-.24.74-.44,1.02s-.44.5-.73.66c-.29.16-.63.23-1.03.23-.34,0-.64-.06-.92-.19-.28-.13-.51-.32-.71-.59s-.35-.6-.45-1.01c-.11-.41-.16-.89-.16-1.45,0-.48.05-.92.15-1.32.1-.4.24-.74.44-1.03s.44-.5.73-.66c.29-.16.63-.23,1.02-.23.34,0,.65.06.92.19.28.13.51.32.71.59.2.27.35.6.45,1.01.11.41.16.89.16,1.45ZM302.03,46.5c0,.1,0,.2,0,.3,0,.1,0,.2.02.29l2.67-1.97c-.05-.16-.11-.31-.18-.45-.07-.13-.16-.25-.27-.35-.1-.1-.22-.17-.35-.23-.13-.05-.28-.08-.44-.08-.22,0-.42.05-.6.16-.18.11-.33.26-.46.48-.13.21-.22.47-.29.78s-.1.67-.1,1.08ZM304.92,46.55c0-.11,0-.22-.01-.33s-.02-.21-.03-.32l-2.67,1.98c.05.17.11.32.18.46s.16.26.27.36c.1.1.22.18.36.24.13.06.29.08.46.08.22,0,.42-.05.6-.16.18-.11.33-.26.46-.47.13-.21.22-.47.29-.78.07-.31.1-.67.1-1.08Z"/>
      <path class="cls-13" d="M311.2,46.52c0,.48-.05.92-.14,1.32-.1.4-.24.74-.44,1.02s-.44.5-.73.66c-.29.16-.63.23-1.03.23-.34,0-.64-.06-.92-.19-.28-.13-.51-.32-.71-.59s-.35-.6-.45-1.01c-.11-.41-.16-.89-.16-1.45,0-.48.05-.92.15-1.32.1-.4.24-.74.44-1.03s.44-.5.73-.66c.29-.16.63-.23,1.02-.23.34,0,.65.06.92.19.28.13.51.32.71.59.2.27.35.6.45,1.01.11.41.16.89.16,1.45ZM307.47,46.5c0,.1,0,.2,0,.3,0,.1,0,.2.02.29l2.67-1.97c-.05-.16-.11-.31-.18-.45-.07-.13-.16-.25-.27-.35-.1-.1-.22-.17-.35-.23-.13-.05-.28-.08-.44-.08-.22,0-.42.05-.6.16-.18.11-.33.26-.46.48-.13.21-.22.47-.29.78s-.1.67-.1,1.08ZM310.35,46.55c0-.11,0-.22-.01-.33s-.02-.21-.03-.32l-2.67,1.98c.05.17.11.32.18.46s.16.26.27.36c.1.1.22.18.36.24.13.06.29.08.46.08.22,0,.42-.05.6-.16.18-.11.33-.26.46-.47.13-.21.22-.47.29-.78.07-.31.1-.67.1-1.08Z"/>
      <path class="cls-13" d="M314.48,42.46h.7l-.13.94c.17.02.34.04.5.06.17.03.33.06.47.09v.74c-.18-.04-.36-.08-.54-.12-.18-.03-.36-.06-.53-.07l-.27,2.06c.21.08.43.17.64.27.21.1.4.21.57.35.17.13.31.29.41.48.1.18.16.4.16.66,0,.27-.05.51-.16.72s-.26.39-.46.53c-.2.15-.43.26-.71.34s-.58.13-.91.15l-.16,1.15h-.7l.16-1.15c-.26-.02-.51-.05-.75-.08-.24-.04-.44-.08-.62-.12v-.8c.2.07.42.13.66.17.24.04.51.08.8.09l.28-2.17c-.21-.08-.42-.17-.62-.26-.2-.09-.38-.21-.54-.34s-.29-.28-.39-.46-.15-.39-.15-.63c0-.2.04-.4.12-.59.08-.19.21-.37.39-.53.18-.16.4-.28.67-.39.27-.1.59-.16.97-.18l.12-.92ZM314.27,44.1c-.4.04-.7.13-.88.28s-.28.35-.28.59c0,.22.08.4.23.55.15.14.38.27.68.39l.25-1.81ZM314.32,48.92c.43-.03.75-.13.95-.29.2-.16.3-.38.3-.66,0-.12-.02-.22-.06-.31-.04-.09-.1-.17-.19-.25-.08-.07-.19-.14-.31-.21s-.27-.13-.44-.19l-.25,1.91Z"/>
      <path class="cls-13" d="M371.16,49.68h-.84l-.13-3.93-.05-1.51-.29.88-.93,2.51h-.59l-.89-2.41-.29-.97-.02,1.58-.11,3.87h-.81l.31-6.31h1.02l.85,2.37.27.8.27-.8.89-2.37h1.05l.3,6.31Z"/>
    </g>
    <g>
      <polyline class="cls-24" points="328.25 54.28 328.25 55.27 327.26 55.27"/>
      <line class="cls-31" x1="325.34" y1="55.27" x2="264.81" y2="55.27"/>
      <polyline class="cls-24" points="263.85 55.27 262.85 55.27 262.85 54.28"/>
      <line class="cls-30" x1="262.85" y1="52.38" x2="262.85" y2="30.55"/>
      <polyline class="cls-24" points="262.85 29.6 262.85 28.61 263.85 28.61"/>
      <line class="cls-31" x1="265.77" y1="28.61" x2="326.3" y2="28.61"/>
      <polyline class="cls-24" points="327.26 28.61 328.25 28.61 328.25 29.6"/>
      <line class="cls-30" x1="328.25" y1="31.5" x2="328.25" y2="53.33"/>
    </g>
  </g>
  <g>
    <rect class="cls-33" x="342.4" y="82.27" width="59.78" height="23.54"/>
    <g>
      <text id="MBWT_:_" data-name="MBWT ( )=(        ) =: ( )" class="cls-15" transform="translate(261.85 98.11)"><tspan class="cls-18" x="0" y="0">MBWT</tspan><tspan class="cls-18" x="30.55" y="2"> </tspan><tspan class="cls-6" x="33.33" y="2" xml:space="preserve">( ) = (       ) =:</tspan><tspan class="cls-9" x="166.47" y="2"> </tspan><tspan class="cls-8" x="171.32" y="2">(</tspan><tspan class="cls-10" x="177.83" y="2"> </tspan><tspan class="cls-6" x="185.79" y="2">)</tspan></text>
      <g>
        <path class="cls-13" d="M307.29,88.63c0,.3-.06.56-.18.79-.12.23-.29.41-.51.56-.22.15-.48.26-.79.34-.31.07-.65.11-1.02.11-.17,0-.33,0-.5-.02-.17-.01-.32-.03-.48-.05-.15-.02-.3-.04-.43-.07-.13-.03-.26-.05-.37-.08v-.83c.24.09.51.16.81.21.3.05.64.08,1.03.08.28,0,.51-.02.71-.06s.35-.11.48-.19c.12-.09.21-.19.27-.31.06-.12.08-.26.08-.42,0-.17-.05-.32-.14-.44-.1-.12-.22-.23-.37-.32-.16-.09-.33-.18-.53-.26-.2-.08-.4-.16-.61-.24-.21-.08-.41-.17-.61-.27-.2-.1-.37-.21-.53-.35-.15-.13-.28-.29-.37-.47s-.14-.39-.14-.64c0-.22.04-.43.13-.64s.23-.4.42-.56c.19-.16.43-.29.73-.39.3-.1.65-.15,1.06-.15.11,0,.22,0,.34.01.12,0,.25.02.38.04.13.02.25.04.38.06s.24.05.34.07v.77c-.25-.07-.5-.12-.74-.16-.25-.04-.49-.06-.72-.06-.49,0-.85.08-1.09.25-.23.16-.35.38-.35.66,0,.17.05.32.14.44s.22.23.37.33.33.18.53.26c.2.08.4.16.61.24.21.08.41.18.61.27.2.1.37.22.53.35s.28.3.37.48c.09.18.14.4.14.65Z"/>
        <path class="cls-13" d="M356.24,85.11c-.24-.13-.48-.22-.72-.29-.25-.07-.52-.1-.81-.1-.33,0-.63.06-.89.18-.26.12-.48.29-.66.5-.18.22-.32.48-.41.78s-.14.64-.14,1.01.04.73.12,1.04.2.56.36.78c.16.21.37.38.63.49.26.11.56.17.92.17.06,0,.13,0,.2,0,.07,0,.14-.02.21-.03.07-.01.14-.02.21-.04.07-.02.12-.03.18-.05v-2.01h-1.29v-.71h2.14v3.22c-.13.06-.27.12-.42.16s-.3.09-.45.12c-.15.03-.31.06-.46.07-.15.02-.3.02-.44.02-.43,0-.82-.07-1.17-.2s-.64-.34-.88-.6c-.24-.27-.43-.6-.56-.99-.13-.4-.2-.85-.2-1.38s.07-.98.22-1.39c.15-.41.35-.76.61-1.04.26-.29.58-.5.95-.65.37-.15.77-.22,1.22-.22.28,0,.55.02.81.07s.5.13.74.24v.85Z"/>
        <path class="cls-13" d="M361.84,84.76h-1.87v5.57h-.87v-5.57h-1.87v-.73h4.6v.73Z"/>
        <path class="cls-13" d="M367.05,90.1c-.5.21-1.03.31-1.59.31-.89,0-1.58-.27-2.05-.8-.48-.53-.72-1.32-.72-2.36,0-.5.07-.96.2-1.37.13-.41.32-.76.56-1.04.25-.28.54-.5.89-.66.35-.15.74-.23,1.17-.23.29,0,.56.02.82.07s.49.13.72.23v.84c-.23-.13-.46-.22-.71-.29s-.51-.1-.8-.1-.56.06-.8.17c-.24.11-.44.27-.61.48-.17.21-.3.47-.39.77-.09.3-.14.65-.14,1.04,0,.82.17,1.43.5,1.85.33.42.82.62,1.46.62.27,0,.53-.03.78-.09.25-.06.49-.15.71-.26v.81Z"/>
        <path class="cls-13" d="M370.54,83.12h.7l-.13.94c.17.02.34.04.5.06.17.03.33.06.47.09v.74c-.18-.04-.36-.08-.54-.12-.18-.03-.36-.06-.53-.07l-.27,2.06c.21.08.43.17.64.27.21.1.4.21.57.35.17.13.31.29.41.48.1.18.16.4.16.66,0,.27-.05.51-.16.72s-.26.39-.46.53c-.2.15-.43.26-.71.34s-.58.13-.91.15l-.16,1.15h-.7l.16-1.15c-.26-.02-.51-.05-.75-.08-.24-.04-.44-.08-.62-.12v-.8c.2.07.42.13.66.17.24.04.51.08.8.09l.28-2.17c-.21-.08-.42-.17-.62-.26-.2-.09-.38-.21-.54-.34s-.29-.28-.39-.46-.15-.39-.15-.63c0-.2.04-.4.12-.59.08-.19.21-.37.39-.53.18-.16.4-.28.67-.39.27-.1.59-.16.97-.18l.12-.92ZM370.32,84.76c-.4.04-.7.13-.88.28s-.28.35-.28.59c0,.22.08.4.23.55.15.14.38.27.68.39l.25-1.81ZM370.38,89.58c.43-.03.75-.13.95-.29.2-.16.3-.38.3-.66,0-.12-.02-.22-.06-.31-.04-.09-.1-.17-.19-.25-.08-.07-.19-.14-.31-.21s-.27-.13-.44-.19l-.25,1.91Z"/>
        <path class="cls-13" d="M378.5,90.33h-.94l-.44-1.38h-2.62l-.44,1.38h-.89l2.09-6.31h1.18l2.06,6.31ZM376.88,88.19l-1.07-3.37-1.07,3.37h2.13Z"/>
        <path class="cls-13" d="M383.94,90.33h-.94l-.44-1.38h-2.62l-.44,1.38h-.89l2.09-6.31h1.18l2.06,6.31ZM382.31,88.19l-1.07-3.37-1.07,3.37h2.13Z"/>
        <path class="cls-13" d="M388.84,85.11c-.24-.13-.48-.22-.72-.29-.25-.07-.52-.1-.81-.1-.33,0-.63.06-.89.18-.26.12-.48.29-.66.5-.18.22-.32.48-.41.78s-.14.64-.14,1.01.04.73.12,1.04.2.56.36.78c.16.21.37.38.63.49.26.11.56.17.92.17.06,0,.13,0,.2,0,.07,0,.14-.02.21-.03.07-.01.14-.02.21-.04.07-.02.12-.03.18-.05v-2.01h-1.29v-.71h2.14v3.22c-.13.06-.27.12-.42.16s-.3.09-.45.12c-.15.03-.31.06-.46.07-.15.02-.3.02-.44.02-.43,0-.82-.07-1.17-.2s-.64-.34-.88-.6c-.24-.27-.43-.6-.56-.99-.13-.4-.2-.85-.2-1.38s.07-.98.22-1.39c.15-.41.35-.76.61-1.04.26-.29.58-.5.95-.65.37-.15.77-.22,1.22-.22.28,0,.55.02.81.07s.5.13.74.24v.85Z"/>
        <path class="cls-13" d="M394.27,85.11c-.24-.13-.48-.22-.72-.29-.25-.07-.52-.1-.81-.1-.33,0-.63.06-.89.18-.26.12-.48.29-.66.5-.18.22-.32.48-.41.78s-.14.64-.14,1.01.04.73.12,1.04.2.56.36.78c.16.21.37.38.63.49.26.11.56.17.92.17.06,0,.13,0,.2,0,.07,0,.14-.02.21-.03.07-.01.14-.02.21-.04.07-.02.12-.03.18-.05v-2.01h-1.29v-.71h2.14v3.22c-.13.06-.27.12-.42.16s-.3.09-.45.12c-.15.03-.31.06-.46.07-.15.02-.3.02-.44.02-.43,0-.82-.07-1.17-.2s-.64-.34-.88-.6c-.24-.27-.43-.6-.56-.99-.13-.4-.2-.85-.2-1.38s.07-.98.22-1.39c.15-.41.35-.76.61-1.04.26-.29.58-.5.95-.65.37-.15.77-.22,1.22-.22.28,0,.55.02.81.07s.5.13.74.24v.85Z"/>
        <path class="cls-13" d="M444.81,88.63c0,.3-.06.56-.18.79-.12.23-.29.41-.51.56-.22.15-.48.26-.79.34-.31.07-.65.11-1.02.11-.17,0-.33,0-.5-.02-.17-.01-.32-.03-.48-.05-.15-.02-.3-.04-.43-.07-.13-.03-.26-.05-.37-.08v-.83c.24.09.51.16.81.21.3.05.64.08,1.03.08.28,0,.51-.02.71-.06s.35-.11.48-.19c.12-.09.21-.19.27-.31.06-.12.08-.26.08-.42,0-.17-.05-.32-.14-.44-.1-.12-.22-.23-.37-.32-.16-.09-.33-.18-.53-.26-.2-.08-.4-.16-.61-.24-.21-.08-.41-.17-.61-.27-.2-.1-.37-.21-.53-.35-.15-.13-.28-.29-.37-.47s-.14-.39-.14-.64c0-.22.04-.43.13-.64s.23-.4.42-.56c.19-.16.43-.29.73-.39.3-.1.65-.15,1.06-.15.11,0,.22,0,.34.01.12,0,.25.02.38.04.13.02.25.04.38.06s.24.05.34.07v.77c-.25-.07-.5-.12-.74-.16-.25-.04-.49-.06-.72-.06-.49,0-.85.08-1.09.25-.23.16-.35.38-.35.66,0,.17.05.32.14.44s.22.23.37.33.33.18.53.26c.2.08.4.16.61.24.21.08.41.18.61.27.2.1.37.22.53.35s.28.3.37.48c.09.18.14.4.14.65Z"/>
        <path class="cls-13" d="M447.12,83.52l-.14,2.26h-.83l-.13-2.26h1.1Z"/>
        <path class="cls-13" d="M307.29,102.19h-.84l-.13-3.93-.05-1.51-.29.88-.93,2.51h-.59l-.89-2.41-.29-.97-.02,1.58-.11,3.87h-.81l.31-6.31h1.02l.85,2.37.27.8.27-.8.89-2.37h1.05l.3,6.31Z"/>
        <path class="cls-13" d="M353.85,94.98h.7l-.13.94c.17.02.34.04.5.06.17.03.33.06.47.09v.74c-.18-.04-.36-.08-.54-.12-.18-.03-.36-.06-.53-.07l-.27,2.06c.21.08.43.17.64.27.21.1.4.21.57.35.17.13.31.29.41.48.1.18.16.4.16.66,0,.27-.05.51-.16.72s-.26.39-.46.53c-.2.15-.43.26-.71.34s-.58.13-.91.15l-.16,1.15h-.7l.16-1.15c-.26-.02-.51-.05-.75-.08-.24-.04-.44-.08-.62-.12v-.8c.2.07.42.13.66.17.24.04.51.08.8.09l.28-2.17c-.21-.08-.42-.17-.62-.26-.2-.09-.38-.21-.54-.34s-.29-.28-.39-.46-.15-.39-.15-.63c0-.2.04-.4.12-.59.08-.19.21-.37.39-.53.18-.16.4-.28.67-.39.27-.1.59-.16.97-.18l.12-.92ZM353.63,96.62c-.4.04-.7.13-.88.28s-.28.35-.28.59c0,.22.08.4.23.55.15.14.38.27.68.39l.25-1.81ZM353.69,101.44c.43-.03.75-.13.95-.29.2-.16.3-.38.3-.66,0-.12-.02-.22-.06-.31-.04-.09-.1-.17-.19-.25-.08-.07-.19-.14-.31-.21s-.27-.13-.44-.19l-.25,1.91Z"/>
        <path class="cls-13" d="M361.43,99.04c0,.48-.05.92-.14,1.32-.1.4-.24.74-.44,1.02s-.44.5-.73.66c-.29.16-.63.23-1.03.23-.34,0-.64-.06-.92-.19-.28-.13-.51-.32-.71-.59s-.35-.6-.45-1.01c-.11-.41-.16-.89-.16-1.45,0-.48.05-.92.15-1.32.1-.4.24-.74.44-1.03s.44-.5.73-.66c.29-.16.63-.23,1.02-.23.34,0,.65.06.92.19.28.13.51.32.71.59.2.27.35.6.45,1.01.11.41.16.89.16,1.45ZM357.7,99.01c0,.1,0,.2,0,.3,0,.1,0,.2.02.29l2.67-1.97c-.05-.16-.11-.31-.18-.45-.07-.13-.16-.25-.27-.35-.1-.1-.22-.17-.35-.23-.13-.05-.28-.08-.44-.08-.22,0-.42.05-.6.16-.18.11-.33.26-.46.48-.13.21-.22.47-.29.78s-.1.67-.1,1.08ZM360.58,99.07c0-.11,0-.22-.01-.33s-.02-.21-.03-.32l-2.67,1.98c.05.17.11.32.18.46s.16.26.27.36c.1.1.22.18.36.24.13.06.29.08.46.08.22,0,.42-.05.6-.16.18-.11.33-.26.46-.47.13-.21.22-.47.29-.78.07-.31.1-.67.1-1.08Z"/>
        <path class="cls-13" d="M366.86,99.04c0,.48-.05.92-.14,1.32-.1.4-.24.74-.44,1.02s-.44.5-.73.66c-.29.16-.63.23-1.03.23-.34,0-.64-.06-.92-.19-.28-.13-.51-.32-.71-.59s-.35-.6-.45-1.01c-.11-.41-.16-.89-.16-1.45,0-.48.05-.92.15-1.32.1-.4.24-.74.44-1.03s.44-.5.73-.66c.29-.16.63-.23,1.02-.23.34,0,.65.06.92.19.28.13.51.32.71.59.2.27.35.6.45,1.01.11.41.16.89.16,1.45ZM363.13,99.01c0,.1,0,.2,0,.3,0,.1,0,.2.02.29l2.67-1.97c-.05-.16-.11-.31-.18-.45-.07-.13-.16-.25-.27-.35-.1-.1-.22-.17-.35-.23-.13-.05-.28-.08-.44-.08-.22,0-.42.05-.6.16-.18.11-.33.26-.46.48-.13.21-.22.47-.29.78s-.1.67-.1,1.08ZM366.01,99.07c0-.11,0-.22-.01-.33s-.02-.21-.03-.32l-2.67,1.98c.05.17.11.32.18.46s.16.26.27.36c.1.1.22.18.36.24.13.06.29.08.46.08.22,0,.42-.05.6-.16.18-.11.33-.26.46-.47.13-.21.22-.47.29-.78.07-.31.1-.67.1-1.08Z"/>
        <path class="cls-13" d="M372.1,102.19h-3.96v-.78h1.62v-4.6l-1.51.82-.31-.71,2.01-1.06h.74v5.55h1.41v.78Z"/>
        <path class="cls-13" d="M377.73,99.04c0,.48-.05.92-.14,1.32-.1.4-.24.74-.44,1.02s-.44.5-.73.66c-.29.16-.63.23-1.03.23-.34,0-.64-.06-.92-.19-.28-.13-.51-.32-.71-.59s-.35-.6-.45-1.01c-.11-.41-.16-.89-.16-1.45,0-.48.05-.92.15-1.32.1-.4.24-.74.44-1.03s.44-.5.73-.66c.29-.16.63-.23,1.02-.23.34,0,.65.06.92.19.28.13.51.32.71.59.2.27.35.6.45,1.01.11.41.16.89.16,1.45ZM374,99.01c0,.1,0,.2,0,.3,0,.1,0,.2.02.29l2.67-1.97c-.05-.16-.11-.31-.18-.45-.07-.13-.16-.25-.27-.35-.1-.1-.22-.17-.35-.23-.13-.05-.28-.08-.44-.08-.22,0-.42.05-.6.16-.18.11-.33.26-.46.48-.13.21-.22.47-.29.78s-.1.67-.1,1.08ZM376.88,99.07c0-.11,0-.22-.01-.33s-.02-.21-.03-.32l-2.67,1.98c.05.17.11.32.18.46s.16.26.27.36c.1.1.22.18.36.24.13.06.29.08.46.08.22,0,.42-.05.6-.16.18-.11.33-.26.46-.47.13-.21.22-.47.29-.78.07-.31.1-.67.1-1.08Z"/>
        <path class="cls-13" d="M382.97,102.19h-3.96v-.78h1.62v-4.6l-1.51.82-.31-.71,2.01-1.06h.74v5.55h1.41v.78Z"/>
        <path class="cls-13" d="M388.4,102.19h-3.96v-.78h1.62v-4.6l-1.51.82-.31-.71,2.01-1.06h.74v5.55h1.41v.78Z"/>
        <path class="cls-13" d="M393.83,102.19h-3.96v-.78h1.62v-4.6l-1.51.82-.31-.71,2.01-1.06h.74v5.55h1.41v.78Z"/>
        <path class="cls-13" d="M445.39,102.19h-.84l-.13-3.93-.05-1.51-.29.88-.93,2.51h-.59l-.89-2.41-.29-.97-.02,1.58-.11,3.87h-.81l.31-6.31h1.02l.85,2.37.27.8.27-.8.89-2.37h1.05l.3,6.31Z"/>
        <path class="cls-13" d="M447.71,95.38l-.14,2.26h-.83l-.13-2.26h1.1Z"/>
      </g>
    </g>
  </g>
  <g>
    <path class="cls-26" d="M243.37,102.34c-39.79,0-42.95,47.8-6.01,51.07"/>
    <path class="cls-13" d="M236.48,153.3l-.99-1.86.06-.04,2.87,1.33c1.01.28,2.02.57,3.03.85-1.03.17-2.07.33-3.1.5l-3,1-.06-.03,1.2-1.75Z"/>
  </g>
  <g>
    <path class="cls-26" d="M243.37,45.25c-39.79,0-42.95,47.8-6.01,51.07"/>
    <path class="cls-13" d="M236.48,96.22l-.99-1.86.06-.04,2.87,1.33c1.01.28,2.02.57,3.03.85-1.03.17-2.07.33-3.1.5l-3,1-.06-.03,1.2-1.75Z"/>
  </g>
  <g>
    <path class="cls-13" d="M101.82,198.06h.99l2.34,6.46h-.96l-.65-1.93h-2.55l-.7,1.93h-.9l2.43-6.46ZM103.26,201.87l-.98-2.85-1.04,2.85h2.02Z"/>
    <path class="cls-13" d="M105.57,206.35c.47-.91.77-1.57.9-1.99.21-.63.31-1.37.31-2.21s-.12-1.62-.36-2.32c-.15-.43-.44-1.06-.87-1.87h.53c.45.72.72,1.17.82,1.33.09.17.2.4.31.7.14.37.24.73.3,1.09s.09.7.09,1.03c0,.87-.14,1.64-.41,2.32-.17.44-.53,1.08-1.08,1.93h-.55Z"/>
    <path class="cls-13" d="M117.86,199.8h.75v.81c.06-.16.21-.35.45-.58.24-.23.52-.34.83-.34.01,0,.04,0,.07,0s.1,0,.18.02v.83s-.09-.01-.13-.02c-.04,0-.08,0-.13,0-.4,0-.7.13-.92.38-.21.26-.32.55-.32.89v2.71h-.79v-4.71Z"/>
    <path class="cls-13" d="M123.36,201.66c.18-.02.3-.1.36-.23.04-.07.05-.17.05-.3,0-.27-.1-.47-.29-.59-.19-.12-.47-.18-.82-.18-.41,0-.71.11-.88.34-.1.12-.16.31-.19.55h-.74c.01-.58.2-.99.56-1.21.36-.23.78-.34,1.26-.34.55,0,1,.11,1.35.32.34.21.51.54.51.98v2.71c0,.08.02.15.05.2.03.05.1.07.21.07.04,0,.07,0,.12,0,.04,0,.09-.01.14-.02v.58c-.12.04-.22.06-.28.07s-.15.01-.26.01c-.27,0-.47-.1-.59-.29-.06-.1-.11-.25-.14-.44-.16.21-.39.39-.69.55s-.63.23-1,.23c-.44,0-.79-.13-1.07-.4-.28-.26-.42-.6-.42-.99,0-.44.14-.77.41-1.01.27-.24.63-.39,1.07-.44l1.26-.16ZM121.69,203.8c.17.13.36.2.59.2.28,0,.55-.06.81-.19.44-.21.66-.56.66-1.05v-.64c-.1.06-.22.11-.37.15-.15.04-.3.07-.45.09l-.48.06c-.29.04-.5.1-.65.18-.25.14-.37.36-.37.66,0,.23.08.41.25.54Z"/>
    <path class="cls-13" d="M125.84,199.8h.75v.67c.22-.28.46-.47.71-.59s.53-.18.83-.18c.67,0,1.12.23,1.35.7.13.25.19.62.19,1.09v3.02h-.8v-2.97c0-.29-.04-.52-.13-.69-.14-.29-.4-.44-.76-.44-.19,0-.34.02-.46.06-.22.06-.41.19-.57.39-.13.16-.22.32-.26.48-.04.17-.06.4-.06.71v2.47h-.79v-4.71Z"/>
    <path class="cls-13" d="M130.83,198.06h.76v3.75l2.03-2h1.01l-1.81,1.75,1.91,2.96h-1.01l-1.48-2.4-.65.63v1.77h-.76v-6.46Z"/>
    <path class="cls-13" d="M134.77,205.64v-.44h5.01v.44h-5.01Z"/>
    <path class="cls-13" d="M140.82,203.03c.02.26.09.47.2.61.2.25.56.38,1.06.38.3,0,.56-.06.79-.19.23-.13.34-.32.34-.59,0-.2-.09-.36-.27-.46-.12-.06-.35-.14-.69-.22l-.64-.16c-.41-.1-.71-.21-.9-.33-.35-.21-.52-.51-.52-.89,0-.45.16-.81.49-1.08.32-.28.76-.41,1.31-.41.72,0,1.24.21,1.55.62.2.26.3.55.29.85h-.75c-.02-.18-.08-.34-.19-.49-.19-.21-.51-.31-.97-.31-.31,0-.54.06-.69.17-.16.11-.24.26-.24.45,0,.2.1.37.31.49.12.07.3.14.53.19l.53.13c.58.14.97.27,1.16.4.31.2.46.52.46.95s-.16.78-.48,1.09-.81.46-1.47.46c-.71,0-1.21-.16-1.51-.48-.29-.32-.45-.71-.47-1.18h.76Z"/>
    <path class="cls-13" d="M145.01,198.49h.8v1.31h.75v.65h-.75v3.07c0,.16.06.27.17.33.06.03.16.05.31.05.04,0,.08,0,.12,0s.1,0,.15-.01v.63c-.09.03-.19.05-.28.06s-.2.02-.32.02c-.37,0-.62-.09-.75-.28-.13-.19-.2-.43-.2-.74v-3.12h-.64v-.65h.64v-1.31Z"/>
    <path class="cls-13" d="M147.37,199.8h.75v.81c.06-.16.21-.35.45-.58.24-.23.52-.34.83-.34.01,0,.04,0,.07,0s.1,0,.18.02v.83s-.09-.01-.13-.02c-.04,0-.08,0-.13,0-.4,0-.7.13-.92.38-.21.26-.32.55-.32.89v2.71h-.79v-4.71Z"/>
    <path class="cls-13" d="M150.35,198.06h.8v.9h-.8v-.9ZM150.35,199.83h.8v4.68h-.8v-4.68Z"/>
    <path class="cls-13" d="M152.35,199.8h.75v.67c.22-.28.46-.47.71-.59s.53-.18.83-.18c.67,0,1.12.23,1.35.7.13.25.19.62.19,1.09v3.02h-.8v-2.97c0-.29-.04-.52-.13-.69-.14-.29-.4-.44-.76-.44-.19,0-.34.02-.46.06-.22.06-.41.19-.57.39-.13.16-.22.32-.26.48-.04.17-.06.4-.06.71v2.47h-.79v-4.71Z"/>
    <path class="cls-13" d="M159.97,199.99c.15.1.3.25.46.45v-.59h.73v4.28c0,.6-.09,1.07-.26,1.42-.33.64-.94.96-1.85.96-.51,0-.93-.11-1.27-.34-.34-.23-.54-.58-.58-1.07h.8c.04.21.11.37.23.49.18.18.46.26.84.26.6,0,1-.21,1.18-.64.11-.25.16-.7.15-1.35-.16.24-.35.42-.57.54-.22.12-.52.18-.88.18-.51,0-.95-.18-1.33-.54s-.57-.96-.57-1.8c0-.79.19-1.4.58-1.85s.85-.66,1.39-.66c.37,0,.69.09.96.27ZM160.07,200.84c-.24-.28-.54-.42-.91-.42-.55,0-.93.26-1.14.78-.11.28-.16.64-.16,1.09,0,.53.11.93.32,1.21.21.28.5.42.86.42.57,0,.96-.26,1.19-.77.13-.29.19-.63.19-1.02,0-.58-.12-1.02-.36-1.3Z"/>
    <path class="cls-13" d="M164.44,197.95c-.46.89-.76,1.55-.9,1.97-.21.64-.31,1.38-.31,2.22s.12,1.63.36,2.33c.15.43.44,1.06.87,1.87h-.53c-.43-.67-.69-1.09-.8-1.28s-.21-.44-.33-.75c-.16-.43-.28-.9-.34-1.39-.03-.25-.05-.5-.05-.73,0-.87.14-1.64.41-2.32.17-.43.53-1.08,1.08-1.93h.55Z"/>
    <path class="cls-13" d="M169.16,202.96c0,.27-.06.51-.17.72s-.27.38-.47.51c-.2.14-.44.24-.72.31-.28.07-.59.1-.93.1-.15,0-.3,0-.45-.02-.15-.01-.3-.03-.44-.04s-.27-.04-.39-.06-.23-.05-.33-.07v-.76c.22.08.47.15.74.19.27.05.58.07.93.07.25,0,.47-.02.64-.06.18-.04.32-.1.44-.18.11-.08.19-.17.25-.28.05-.11.08-.24.08-.38,0-.16-.04-.29-.13-.4-.09-.11-.2-.21-.34-.29-.14-.09-.3-.17-.48-.24-.18-.07-.36-.15-.55-.22s-.37-.16-.55-.25c-.18-.09-.34-.19-.48-.32s-.25-.26-.34-.43-.13-.36-.13-.58c0-.2.04-.39.12-.58s.21-.36.38-.51.39-.27.67-.36c.27-.09.59-.14.97-.14.1,0,.2,0,.31.01.11,0,.23.02.34.04.12.02.23.03.34.06.11.02.22.04.31.07v.7c-.23-.06-.45-.11-.68-.15-.23-.03-.44-.05-.65-.05-.45,0-.78.07-.99.22s-.32.35-.32.6c0,.16.04.29.13.4s.2.21.34.3.3.17.48.24c.18.07.36.15.55.22s.37.16.55.25c.18.09.34.2.48.32s.25.27.34.44c.09.17.13.36.13.59Z"/>
    <path class="cls-13" d="M171.08,198.3l-.13,2.06h-.76l-.12-2.06h1.01Z"/>
    <path class="cls-13" d="M173.37,206.35c.47-.91.77-1.57.9-1.99.21-.63.31-1.37.31-2.21s-.12-1.62-.36-2.32c-.15-.43-.44-1.06-.87-1.87h.53c.45.72.72,1.17.82,1.33.09.17.2.4.31.7.14.37.24.73.3,1.09s.09.7.09,1.03c0,.87-.14,1.64-.41,2.32-.17.44-.53,1.08-1.08,1.93h-.55Z"/>
    <path class="cls-13" d="M99.92,208.85h2.79c.76,0,1.3.23,1.62.68.19.27.28.57.28.92,0,.41-.12.74-.35,1-.12.14-.29.26-.52.38.33.13.58.27.74.43.29.28.44.67.44,1.16,0,.42-.13.79-.39,1.13-.39.5-1.02.76-1.87.76h-2.75v-6.46ZM102.39,211.58c.37,0,.66-.05.87-.15.33-.16.49-.45.49-.87s-.17-.71-.52-.85c-.2-.08-.49-.12-.87-.12h-1.58v2h1.61ZM102.68,214.56c.54,0,.93-.16,1.16-.47.15-.2.22-.43.22-.71,0-.47-.21-.79-.63-.96-.23-.09-.52-.14-.89-.14h-1.75v2.27h1.9Z"/>
    <path class="cls-13" d="M105.57,217.15c.47-.91.77-1.57.9-1.99.21-.63.31-1.37.31-2.21s-.12-1.62-.36-2.32c-.15-.43-.44-1.06-.87-1.87h.53c.45.72.72,1.17.82,1.33.09.17.2.4.31.7.14.37.24.73.3,1.09s.09.7.09,1.03c0,.87-.14,1.64-.41,2.32-.17.44-.53,1.08-1.08,1.93h-.55Z"/>
    <path class="cls-13" d="M120.95,210.85c.33.26.53.7.6,1.33h-.77c-.05-.29-.15-.53-.32-.72-.17-.19-.44-.29-.8-.29-.5,0-.86.25-1.08.74-.14.32-.21.71-.21,1.18s.1.87.3,1.19c.2.32.51.48.94.48.33,0,.59-.1.78-.3s.32-.47.4-.82h.77c-.09.62-.31,1.08-.66,1.37-.35.29-.8.43-1.35.43-.62,0-1.11-.22-1.47-.67s-.55-1.01-.55-1.69c0-.83.2-1.47.6-1.93s.91-.69,1.53-.69c.53,0,.96.13,1.29.39Z"/>
    <path class="cls-13" d="M125.75,211.07c.42.4.62,1,.62,1.78s-.18,1.38-.55,1.88-.94.74-1.71.74c-.64,0-1.15-.22-1.53-.66-.38-.44-.57-1.03-.57-1.76,0-.79.2-1.42.6-1.89s.93-.7,1.61-.7c.6,0,1.11.2,1.53.61ZM125.26,214.2c.19-.4.29-.84.29-1.32,0-.44-.07-.8-.21-1.07-.22-.43-.6-.65-1.14-.65-.48,0-.83.18-1.04.55s-.33.81-.33,1.33.11.92.33,1.25.56.5,1.03.5c.52,0,.87-.2,1.07-.59Z"/>
    <path class="cls-13" d="M127.34,210.6h.78v.67c.19-.23.36-.4.51-.51.26-.18.56-.27.89-.27.38,0,.68.09.91.28.13.11.25.26.35.47.18-.25.38-.44.62-.56.24-.12.5-.18.8-.18.63,0,1.06.23,1.29.69.12.25.18.58.18.99v3.13h-.82v-3.27c0-.31-.08-.53-.24-.65s-.35-.18-.57-.18c-.31,0-.58.1-.8.31-.22.21-.34.56-.34,1.04v2.74h-.8v-3.07c0-.32-.04-.55-.11-.7-.12-.22-.34-.33-.67-.33-.3,0-.57.12-.81.35-.25.23-.37.65-.37,1.26v2.5h-.79v-4.71Z"/>
    <path class="cls-13" d="M134.78,210.63h.77v.62c.16-.21.33-.38.52-.5.27-.18.58-.26.94-.26.53,0,.99.2,1.36.61.37.41.56.99.56,1.75,0,1.03-.27,1.76-.81,2.2-.34.28-.74.42-1.19.42-.36,0-.65-.08-.9-.23-.14-.09-.3-.24-.47-.45v2.4h-.79v-6.56ZM137.75,214.32c.25-.31.37-.77.37-1.39,0-.38-.05-.7-.16-.97-.21-.52-.58-.78-1.13-.78s-.93.27-1.13.82c-.11.29-.16.67-.16,1.12,0,.36.05.67.16.93.21.49.58.73,1.13.73.37,0,.68-.15.92-.46Z"/>
    <path class="cls-13" d="M139.87,210.6h.75v.81c.06-.16.21-.35.45-.58.24-.23.52-.34.83-.34.01,0,.04,0,.07,0s.1,0,.18.02v.83s-.09-.01-.13-.02c-.04,0-.08,0-.13,0-.4,0-.7.13-.92.38-.21.26-.32.55-.32.89v2.71h-.79v-4.71Z"/>
    <path class="cls-13" d="M145.75,210.73c.31.16.55.36.71.61.16.24.26.51.31.83.05.22.07.56.07,1.04h-3.42c.01.48.13.86.34,1.15.21.29.53.43.97.43.41,0,.74-.14.98-.41.14-.16.23-.34.29-.55h.78c-.02.17-.09.37-.2.58-.12.21-.25.39-.39.52-.24.23-.53.39-.89.47-.19.05-.4.07-.64.07-.58,0-1.08-.21-1.48-.64-.4-.43-.61-1.02-.61-1.79s.2-1.37.61-1.84.94-.71,1.6-.71c.33,0,.65.08.97.23ZM146.03,212.58c-.03-.34-.11-.62-.22-.82-.22-.38-.57-.57-1.08-.57-.36,0-.66.13-.91.39s-.37.6-.39,1h2.59Z"/>
    <path class="cls-13" d="M148.32,213.83c.02.26.09.47.2.61.2.25.56.38,1.06.38.3,0,.56-.06.79-.19.23-.13.34-.32.34-.59,0-.2-.09-.36-.27-.46-.12-.06-.35-.14-.69-.22l-.64-.16c-.41-.1-.71-.21-.9-.33-.35-.21-.52-.51-.52-.89,0-.45.16-.81.49-1.08.32-.28.76-.41,1.31-.41.72,0,1.24.21,1.55.62.2.26.3.55.29.85h-.75c-.02-.18-.08-.34-.19-.49-.19-.21-.51-.31-.97-.31-.31,0-.54.06-.69.17-.16.11-.24.26-.24.45,0,.2.1.37.31.49.12.07.3.14.53.19l.53.13c.58.14.97.27,1.16.4.31.2.46.52.46.95s-.16.78-.48,1.09-.81.46-1.47.46c-.71,0-1.21-.16-1.51-.48-.29-.32-.45-.71-.47-1.18h.76Z"/>
    <path class="cls-13" d="M152.82,213.83c.02.26.09.47.2.61.2.25.56.38,1.06.38.3,0,.56-.06.79-.19.23-.13.34-.32.34-.59,0-.2-.09-.36-.27-.46-.12-.06-.35-.14-.69-.22l-.64-.16c-.41-.1-.71-.21-.9-.33-.35-.21-.52-.51-.52-.89,0-.45.16-.81.49-1.08.32-.28.76-.41,1.31-.41.72,0,1.24.21,1.55.62.2.26.3.55.29.85h-.75c-.02-.18-.08-.34-.19-.49-.19-.21-.51-.31-.97-.31-.31,0-.54.06-.69.17-.16.11-.24.26-.24.45,0,.2.1.37.31.49.12.07.3.14.53.19l.53.13c.58.14.97.27,1.16.4.31.2.46.52.46.95s-.16.78-.48,1.09-.81.46-1.47.46c-.71,0-1.21-.16-1.51-.48-.29-.32-.45-.71-.47-1.18h.76Z"/>
    <path class="cls-13" d="M159.76,210.73c.31.16.55.36.71.61.16.24.26.51.31.83.05.22.07.56.07,1.04h-3.42c.01.48.13.86.34,1.15.21.29.53.43.97.43.41,0,.74-.14.98-.41.14-.16.23-.34.29-.55h.78c-.02.17-.09.37-.2.58-.12.21-.25.39-.39.52-.24.23-.53.39-.89.47-.19.05-.4.07-.64.07-.58,0-1.08-.21-1.48-.64-.4-.43-.61-1.02-.61-1.79s.2-1.37.61-1.84.94-.71,1.6-.71c.33,0,.65.08.97.23ZM160.04,212.58c-.03-.34-.11-.62-.22-.82-.22-.38-.57-.57-1.08-.57-.36,0-.66.13-.91.39s-.37.6-.39,1h2.59Z"/>
    <path class="cls-13" d="M164.44,210.75c.14.09.3.24.48.46v-2.38h.76v6.48h-.71v-.65c-.18.29-.4.5-.65.63s-.54.19-.86.19c-.52,0-.97-.22-1.36-.66-.38-.44-.57-1.03-.57-1.76,0-.69.17-1.28.52-1.78.35-.5.85-.75,1.5-.75.36,0,.66.08.9.23ZM162.67,214.28c.21.34.55.51,1.02.51.36,0,.66-.16.9-.47s.35-.77.35-1.36-.12-1.03-.36-1.32c-.24-.29-.54-.43-.9-.43-.4,0-.72.15-.96.46-.25.3-.37.75-.37,1.34,0,.5.11.93.32,1.27Z"/>
    <path class="cls-13" d="M166.28,216.44v-.44h5.01v.44h-5.01Z"/>
    <path class="cls-13" d="M171.8,208.83h.77v2.34c.17-.23.38-.4.62-.52.24-.12.5-.18.79-.18.59,0,1.07.2,1.43.6.37.4.55,1,.55,1.78,0,.74-.18,1.36-.54,1.85-.36.49-.86.74-1.5.74-.36,0-.66-.09-.91-.26-.15-.1-.3-.27-.47-.49v.6h-.73v-6.48ZM174.82,214.25c.21-.34.32-.79.32-1.34,0-.5-.11-.91-.32-1.23-.21-.33-.53-.49-.94-.49-.36,0-.68.13-.95.4s-.41.71-.41,1.32c0,.44.06.8.17,1.08.21.52.6.78,1.17.78.43,0,.75-.17.96-.51Z"/>
    <path class="cls-13" d="M176.87,208.85h.8v.9h-.8v-.9ZM176.87,210.63h.8v4.68h-.8v-4.68Z"/>
    <path class="cls-13" d="M179.03,209.29h.8v1.31h.75v.65h-.75v3.07c0,.16.06.27.17.33.06.03.16.05.31.05.04,0,.08,0,.12,0s.1,0,.15-.01v.63c-.09.03-.19.05-.28.06s-.2.02-.32.02c-.37,0-.62-.09-.75-.28-.13-.19-.2-.43-.2-.74v-3.12h-.64v-.65h.64v-1.31Z"/>
    <path class="cls-13" d="M181.76,210.6l1.26,3.83,1.31-3.83h.87l-1.77,4.71h-.84l-1.74-4.71h.92Z"/>
    <path class="cls-13" d="M188.78,210.73c.31.16.55.36.71.61.16.24.26.51.31.83.05.22.07.56.07,1.04h-3.42c.01.48.13.86.34,1.15.21.29.53.43.97.43.41,0,.74-.14.98-.41.14-.16.23-.34.29-.55h.78c-.02.17-.09.37-.2.58-.12.21-.25.39-.39.52-.24.23-.53.39-.89.47-.19.05-.4.07-.64.07-.58,0-1.08-.21-1.48-.64-.4-.43-.61-1.02-.61-1.79s.2-1.37.61-1.84.94-.71,1.6-.71c.33,0,.65.08.97.23ZM189.06,212.58c-.03-.34-.11-.62-.22-.82-.22-.38-.57-.57-1.08-.57-.36,0-.66.13-.91.39s-.37.6-.39,1h2.59Z"/>
    <path class="cls-13" d="M193.99,210.85c.33.26.53.7.6,1.33h-.77c-.05-.29-.15-.53-.32-.72-.17-.19-.44-.29-.8-.29-.5,0-.87.25-1.08.74-.14.32-.21.71-.21,1.18s.1.87.3,1.19c.2.32.51.48.94.48.33,0,.59-.1.78-.3.19-.2.32-.47.4-.82h.77c-.09.62-.31,1.08-.66,1.37-.35.29-.8.43-1.35.43-.62,0-1.11-.22-1.47-.67-.37-.45-.55-1.01-.55-1.69,0-.83.2-1.47.6-1.93.4-.46.91-.69,1.53-.69.53,0,.96.13,1.29.39Z"/>
    <path class="cls-13" d="M195.53,209.29h.8v1.31h.75v.65h-.75v3.07c0,.16.06.27.17.33.06.03.16.05.31.05.04,0,.08,0,.12,0s.09,0,.15-.01v.63c-.09.03-.18.05-.28.06-.1.01-.2.02-.32.02-.37,0-.62-.09-.75-.28-.13-.19-.2-.43-.2-.74v-3.12h-.64v-.65h.64v-1.31Z"/>
    <path class="cls-13" d="M201.29,211.07c.42.4.62,1,.62,1.78s-.18,1.38-.55,1.88-.94.74-1.71.74c-.64,0-1.15-.22-1.53-.66-.38-.44-.57-1.03-.57-1.76,0-.79.2-1.42.6-1.89s.93-.7,1.61-.7c.6,0,1.11.2,1.53.61ZM200.8,214.2c.19-.4.29-.84.29-1.32,0-.44-.07-.8-.21-1.07-.22-.43-.6-.65-1.14-.65-.48,0-.83.18-1.04.55-.22.37-.33.81-.33,1.33s.11.92.33,1.25c.22.33.56.5,1.03.5.52,0,.87-.2,1.07-.59Z"/>
    <path class="cls-13" d="M202.9,210.6h.75v.81c.06-.16.21-.35.45-.58.24-.23.52-.34.83-.34.01,0,.04,0,.07,0s.1,0,.18.02v.83s-.09-.01-.13-.02c-.04,0-.08,0-.13,0-.4,0-.71.13-.92.38-.21.26-.32.55-.32.89v2.71h-.79v-4.71Z"/>
    <path class="cls-13" d="M207.96,208.75c-.46.89-.76,1.55-.9,1.97-.21.64-.31,1.38-.31,2.22s.12,1.63.36,2.33c.15.43.44,1.06.87,1.87h-.53c-.43-.67-.69-1.09-.79-1.28-.1-.18-.21-.44-.33-.75-.17-.43-.28-.9-.34-1.39-.03-.25-.05-.5-.05-.73,0-.87.14-1.64.41-2.32.17-.43.53-1.08,1.08-1.93h.55Z"/>
    <path class="cls-13" d="M213.03,215.31h-.76l-.12-3.58-.05-1.38-.27.8-.85,2.29h-.54l-.81-2.2-.27-.89-.02,1.44-.1,3.52h-.74l.28-5.74h.93l.77,2.16.25.73.24-.73.81-2.16h.95l.28,5.74Z"/>
    <path class="cls-13" d="M215.68,209.1l-.13,2.06h-.76l-.12-2.06h1.01Z"/>
    <path class="cls-13" d="M217.97,217.15c.46-.91.77-1.57.9-1.99.21-.63.31-1.37.31-2.21s-.12-1.62-.36-2.32c-.15-.43-.43-1.06-.87-1.87h.53c.45.72.72,1.17.82,1.33.09.17.2.4.31.7.14.37.24.73.3,1.09.06.36.09.7.09,1.03,0,.87-.14,1.64-.41,2.32-.17.44-.53,1.08-1.08,1.93h-.55Z"/>
    <path class="cls-13" d="M104.51,220.12c.45.43.69.92.74,1.47h-.85c-.09-.42-.28-.75-.57-.99-.28-.24-.68-.37-1.19-.37-.62,0-1.13.22-1.51.67-.38.45-.58,1.13-.58,2.06,0,.76.17,1.37.52,1.84.35.47.86.71,1.55.71.63,0,1.12-.25,1.45-.74.18-.26.31-.6.39-1.03h.85c-.08.68-.32,1.25-.75,1.71-.51.55-1.19.83-2.05.83-.74,0-1.36-.23-1.87-.68-.66-.6-.99-1.53-.99-2.78,0-.95.25-1.73.75-2.34.54-.66,1.28-.99,2.23-.99.81,0,1.44.21,1.88.65Z"/>
    <path class="cls-13" d="M106.07,227.95c.47-.91.77-1.57.9-1.99.21-.63.31-1.37.31-2.21s-.12-1.62-.36-2.33c-.15-.43-.44-1.06-.87-1.87h.53c.45.72.72,1.17.82,1.33.09.17.2.4.31.7.14.37.24.73.3,1.09s.09.7.09,1.03c0,.87-.14,1.64-.41,2.32-.17.44-.53,1.08-1.08,1.93h-.55Z"/>
    <path class="cls-13" d="M120.95,221.65c.33.26.53.7.6,1.33h-.77c-.05-.29-.15-.53-.32-.72-.17-.19-.44-.29-.8-.29-.5,0-.86.25-1.08.74-.14.32-.21.71-.21,1.18s.1.87.3,1.19c.2.32.51.48.94.48.33,0,.59-.1.78-.3s.32-.47.4-.82h.77c-.09.62-.31,1.08-.66,1.37-.35.29-.8.43-1.35.43-.62,0-1.11-.23-1.47-.67-.37-.45-.55-1.01-.55-1.69,0-.83.2-1.47.6-1.93s.91-.69,1.53-.69c.53,0,.96.13,1.29.39Z"/>
    <path class="cls-13" d="M125.75,221.87c.42.4.62,1,.62,1.78s-.18,1.38-.55,1.88c-.37.5-.94.74-1.71.74-.64,0-1.15-.22-1.53-.66-.38-.44-.57-1.03-.57-1.76,0-.79.2-1.42.6-1.89.4-.47.93-.7,1.61-.7.6,0,1.11.2,1.53.61ZM125.26,225c.19-.4.29-.84.29-1.32,0-.44-.07-.8-.21-1.07-.22-.43-.6-.65-1.14-.65-.48,0-.83.18-1.04.55-.22.37-.33.81-.33,1.33s.11.92.33,1.25c.22.33.56.5,1.03.5.52,0,.87-.2,1.07-.59Z"/>
    <path class="cls-13" d="M127.34,221.4h.78v.67c.19-.23.36-.4.51-.5.26-.18.56-.27.89-.27.38,0,.68.09.91.28.13.11.25.26.35.47.18-.25.38-.44.62-.56.24-.12.5-.18.8-.18.63,0,1.06.23,1.29.69.12.25.18.58.18.99v3.13h-.82v-3.27c0-.31-.08-.53-.24-.65-.16-.12-.35-.18-.57-.18-.31,0-.58.1-.8.31-.22.21-.34.56-.34,1.04v2.74h-.8v-3.07c0-.32-.04-.55-.11-.7-.12-.22-.34-.33-.67-.33-.3,0-.57.12-.81.35-.25.23-.37.65-.37,1.26v2.5h-.79v-4.71Z"/>
    <path class="cls-13" d="M134.78,221.43h.77v.62c.16-.21.33-.38.52-.5.27-.18.58-.26.94-.26.53,0,.99.2,1.36.61.37.41.56.99.56,1.75,0,1.03-.27,1.76-.81,2.2-.34.28-.74.42-1.19.42-.36,0-.65-.08-.9-.23-.14-.09-.3-.24-.47-.45v2.4h-.79v-6.56ZM137.75,225.12c.25-.31.37-.77.37-1.39,0-.38-.05-.7-.16-.97-.21-.52-.58-.78-1.13-.78s-.93.27-1.13.82c-.11.29-.16.67-.16,1.12,0,.36.05.67.16.93.21.49.58.73,1.13.73.37,0,.68-.16.92-.46Z"/>
    <path class="cls-13" d="M139.87,221.4h.75v.81c.06-.16.21-.35.45-.58.24-.23.52-.34.83-.34.01,0,.04,0,.07,0s.1,0,.18.02v.83s-.09-.01-.13-.02c-.04,0-.08,0-.13,0-.4,0-.7.13-.92.38-.21.26-.32.55-.32.89v2.71h-.79v-4.71Z"/>
    <path class="cls-13" d="M145.75,221.53c.31.16.55.36.71.61.16.24.26.51.31.83.05.22.07.56.07,1.04h-3.42c.01.48.13.86.34,1.15.21.29.53.43.97.43.41,0,.74-.14.98-.41.14-.16.23-.34.29-.55h.78c-.02.17-.09.37-.2.58-.12.21-.25.39-.39.52-.24.23-.53.39-.89.47-.19.05-.4.07-.64.07-.58,0-1.08-.21-1.48-.64-.4-.43-.61-1.02-.61-1.79s.2-1.37.61-1.84.94-.71,1.6-.71c.33,0,.65.08.97.24ZM146.03,223.38c-.03-.34-.11-.62-.22-.82-.22-.38-.57-.57-1.08-.57-.36,0-.66.13-.91.39-.24.26-.37.6-.39,1h2.59Z"/>
    <path class="cls-13" d="M148.32,224.63c.02.26.09.47.2.61.2.25.56.38,1.06.38.3,0,.56-.06.79-.19.23-.13.34-.32.34-.59,0-.2-.09-.36-.27-.46-.12-.06-.35-.14-.69-.22l-.64-.16c-.41-.1-.71-.21-.9-.33-.35-.21-.52-.51-.52-.89,0-.44.16-.8.49-1.08.32-.28.76-.41,1.31-.41.72,0,1.24.21,1.55.62.2.26.3.55.29.85h-.75c-.02-.18-.08-.34-.19-.48-.19-.21-.51-.31-.97-.31-.31,0-.54.06-.69.17-.16.11-.24.26-.24.45,0,.2.1.37.31.49.12.07.3.14.53.19l.53.13c.58.14.97.27,1.16.4.31.2.46.52.46.95s-.16.78-.48,1.08c-.32.3-.81.46-1.47.46-.71,0-1.21-.16-1.51-.48-.29-.32-.45-.71-.47-1.18h.76Z"/>
    <path class="cls-13" d="M152.82,224.63c.02.26.09.47.2.61.2.25.56.38,1.06.38.3,0,.56-.06.79-.19.23-.13.34-.32.34-.59,0-.2-.09-.36-.27-.46-.12-.06-.35-.14-.69-.22l-.64-.16c-.41-.1-.71-.21-.9-.33-.35-.21-.52-.51-.52-.89,0-.44.16-.8.49-1.08.32-.28.76-.41,1.31-.41.72,0,1.24.21,1.55.62.2.26.3.55.29.85h-.75c-.02-.18-.08-.34-.19-.48-.19-.21-.51-.31-.97-.31-.31,0-.54.06-.69.17-.16.11-.24.26-.24.45,0,.2.1.37.31.49.12.07.3.14.53.19l.53.13c.58.14.97.27,1.16.4.31.2.46.52.46.95s-.16.78-.48,1.08c-.32.3-.81.46-1.47.46-.71,0-1.21-.16-1.51-.48-.29-.32-.45-.71-.47-1.18h.76Z"/>
    <path class="cls-13" d="M159.76,221.53c.31.16.55.36.71.61.16.24.26.51.31.83.05.22.07.56.07,1.04h-3.42c.01.48.13.86.34,1.15.21.29.53.43.97.43.41,0,.74-.14.98-.41.14-.16.23-.34.29-.55h.78c-.02.17-.09.37-.2.58-.12.21-.25.39-.39.52-.24.23-.53.39-.89.47-.19.05-.4.07-.64.07-.58,0-1.08-.21-1.48-.64-.4-.43-.61-1.02-.61-1.79s.2-1.37.61-1.84.94-.71,1.6-.71c.33,0,.65.08.97.24ZM160.04,223.38c-.03-.34-.11-.62-.22-.82-.22-.38-.57-.57-1.08-.57-.36,0-.66.13-.91.39-.24.26-.37.6-.39,1h2.59Z"/>
    <path class="cls-13" d="M164.44,221.55c.14.09.3.24.48.46v-2.38h.76v6.48h-.71v-.65c-.18.29-.4.5-.65.63s-.54.19-.86.19c-.52,0-.97-.22-1.36-.66-.38-.44-.57-1.03-.57-1.76,0-.69.17-1.28.52-1.78.35-.5.85-.75,1.5-.75.36,0,.66.08.9.23ZM162.67,225.08c.21.34.55.51,1.02.51.36,0,.66-.16.9-.47.23-.32.35-.77.35-1.36s-.12-1.03-.36-1.32c-.24-.29-.54-.43-.9-.43-.4,0-.72.15-.96.46-.25.3-.37.75-.37,1.34,0,.5.11.93.32,1.27Z"/>
    <path class="cls-13" d="M166.28,227.24v-.44h5.01v.44h-5.01Z"/>
    <path class="cls-13" d="M171.8,219.63h.77v2.34c.17-.23.38-.4.62-.52.24-.12.5-.18.79-.18.59,0,1.07.2,1.43.6.37.4.55,1,.55,1.78,0,.74-.18,1.36-.54,1.85-.36.49-.86.74-1.5.74-.36,0-.66-.09-.91-.26-.15-.1-.3-.27-.47-.49v.6h-.73v-6.48ZM174.82,225.05c.21-.34.32-.79.32-1.35,0-.49-.11-.9-.32-1.23-.21-.32-.53-.49-.94-.49-.36,0-.68.13-.95.4-.27.27-.41.71-.41,1.32,0,.44.06.8.17,1.08.21.52.6.78,1.17.78.43,0,.75-.17.96-.51Z"/>
    <path class="cls-13" d="M176.87,219.66h.8v.9h-.8v-.9ZM176.87,221.43h.8v4.68h-.8v-4.68Z"/>
    <path class="cls-13" d="M179.03,220.09h.8v1.31h.75v.65h-.75v3.07c0,.16.06.27.17.33.06.03.16.05.31.05.04,0,.08,0,.12,0s.1,0,.15-.02v.63c-.09.03-.19.04-.28.06s-.2.02-.32.02c-.37,0-.62-.09-.75-.28-.13-.19-.2-.43-.2-.74v-3.12h-.64v-.65h.64v-1.31Z"/>
    <path class="cls-13" d="M181.76,221.4l1.26,3.83,1.31-3.83h.87l-1.77,4.71h-.84l-1.74-4.71h.92Z"/>
    <path class="cls-13" d="M188.78,221.53c.31.16.55.36.71.61.16.24.26.51.31.83.05.22.07.56.07,1.04h-3.42c.01.48.13.86.34,1.15.21.29.53.43.97.43.41,0,.74-.14.98-.41.14-.16.23-.34.29-.55h.78c-.02.17-.09.37-.2.58-.12.21-.25.39-.39.52-.24.23-.53.39-.89.47-.19.05-.4.07-.64.07-.58,0-1.08-.21-1.48-.64-.4-.43-.61-1.02-.61-1.79s.2-1.37.61-1.84.94-.71,1.6-.71c.33,0,.65.08.97.24ZM189.06,223.38c-.03-.34-.11-.62-.22-.82-.22-.38-.57-.57-1.08-.57-.36,0-.66.13-.91.39-.24.26-.37.6-.39,1h2.59Z"/>
    <path class="cls-13" d="M193.99,221.65c.33.26.53.7.6,1.33h-.77c-.05-.29-.15-.53-.32-.72-.17-.19-.44-.29-.8-.29-.5,0-.87.25-1.08.74-.14.32-.21.71-.21,1.18s.1.87.3,1.19c.2.32.51.48.94.48.33,0,.59-.1.78-.3.19-.2.32-.47.4-.82h.77c-.09.62-.31,1.08-.66,1.37-.35.29-.8.43-1.35.43-.62,0-1.11-.23-1.47-.67-.37-.45-.55-1.01-.55-1.69,0-.83.2-1.47.6-1.93.4-.46.91-.69,1.53-.69.53,0,.96.13,1.29.39Z"/>
    <path class="cls-13" d="M195.53,220.09h.8v1.31h.75v.65h-.75v3.07c0,.16.06.27.17.33.06.03.16.05.31.05.04,0,.08,0,.12,0s.09,0,.15-.02v.63c-.09.03-.18.04-.28.06-.1.01-.2.02-.32.02-.37,0-.62-.09-.75-.28-.13-.19-.2-.43-.2-.74v-3.12h-.64v-.65h.64v-1.31Z"/>
    <path class="cls-13" d="M201.29,221.87c.42.4.62,1,.62,1.78s-.18,1.38-.55,1.88c-.37.5-.94.74-1.71.74-.64,0-1.15-.22-1.53-.66-.38-.44-.57-1.03-.57-1.76,0-.79.2-1.42.6-1.89.4-.47.93-.7,1.61-.7.6,0,1.11.2,1.53.61ZM200.8,225c.19-.4.29-.84.29-1.32,0-.44-.07-.8-.21-1.07-.22-.43-.6-.65-1.14-.65-.48,0-.83.18-1.04.55-.22.37-.33.81-.33,1.33s.11.92.33,1.25c.22.33.56.5,1.03.5.52,0,.87-.2,1.07-.59Z"/>
    <path class="cls-13" d="M202.9,221.4h.75v.81c.06-.16.21-.35.45-.58.24-.23.52-.34.83-.34.01,0,.04,0,.07,0s.1,0,.18.02v.83s-.09-.01-.13-.02c-.04,0-.08,0-.13,0-.4,0-.71.13-.92.38-.21.26-.32.55-.32.89v2.71h-.79v-4.71Z"/>
    <path class="cls-13" d="M207.96,219.55c-.46.89-.76,1.55-.9,1.97-.21.64-.31,1.38-.31,2.22s.12,1.63.36,2.33c.15.43.44,1.06.87,1.87h-.53c-.43-.67-.69-1.09-.79-1.28-.1-.19-.21-.44-.33-.75-.17-.43-.28-.9-.34-1.39-.03-.25-.05-.5-.05-.73,0-.87.14-1.64.41-2.32.17-.43.53-1.08,1.08-1.93h.55Z"/>
    <path class="cls-13" d="M212.97,226.11h-1.05l-2.06-2.36v2.36h-.76v-6.21h.76v3.81l1.98-2.02h1.01l-2.07,2.04,2.18,2.38Z"/>
    <path class="cls-13" d="M217.57,226.11h-3.3v-5.74h.8v5.08h2.51v.67Z"/>
    <path class="cls-13" d="M222.57,225.9c-.46.19-.94.29-1.45.29-.81,0-1.43-.24-1.87-.73-.43-.48-.65-1.2-.65-2.15,0-.46.06-.88.18-1.25.12-.37.29-.69.51-.95.22-.26.49-.46.81-.6s.67-.21,1.06-.21c.27,0,.51.02.74.07.23.05.45.12.66.21v.77c-.21-.12-.42-.2-.65-.26-.22-.06-.47-.09-.73-.09s-.51.05-.73.15c-.22.1-.4.25-.56.44-.15.19-.27.43-.35.7-.08.28-.12.59-.12.95,0,.75.15,1.31.45,1.68s.74.57,1.33.57c.25,0,.48-.03.71-.08.22-.06.44-.14.65-.24v.74Z"/>
    <path class="cls-13" d="M227.6,222.12c0,.24-.04.47-.13.7-.09.23-.22.44-.41.62-.18.18-.42.33-.71.44-.29.11-.63.17-1.03.17h-.71v2.06h-.78v-5.74h1.62c.28,0,.56.03.82.09.26.06.49.17.69.31.2.14.36.32.47.54s.18.49.18.81ZM226.79,222.16c0-.37-.12-.65-.36-.85-.24-.2-.58-.29-1.01-.29h-.8v2.37h.73c.46,0,.82-.1,1.07-.3.25-.2.38-.51.38-.92Z"/>
    <path class="cls-13" d="M228.4,227.95c.46-.91.77-1.57.9-1.99.21-.63.31-1.37.31-2.21s-.12-1.62-.36-2.33c-.15-.43-.43-1.06-.87-1.87h.53c.45.72.72,1.17.82,1.33.09.17.2.4.31.7.14.37.24.73.3,1.09.06.36.09.7.09,1.03,0,.87-.14,1.64-.41,2.32-.17.44-.53,1.08-1.08,1.93h-.55Z"/>
    <path class="cls-34" d="M233.56,223.3h5.08v.65h-5.08v-.65Z"/>
    <path class="cls-34" d="M245.08,221.87c.42.4.62,1,.62,1.78s-.18,1.38-.55,1.88c-.37.5-.94.74-1.71.74-.64,0-1.15-.22-1.53-.66-.38-.44-.57-1.03-.57-1.76,0-.79.2-1.42.6-1.89.4-.47.93-.7,1.61-.7.6,0,1.11.2,1.53.61ZM244.59,225c.19-.4.29-.84.29-1.32,0-.44-.07-.8-.21-1.07-.22-.43-.6-.65-1.14-.65-.48,0-.83.18-1.04.55-.22.37-.33.81-.33,1.33s.11.92.33,1.25c.22.33.56.5,1.03.5.52,0,.87-.2,1.07-.59Z"/>
    <path class="cls-34" d="M246.61,221.43h.77v.62c.16-.21.33-.38.52-.5.27-.18.58-.26.94-.26.54,0,.99.2,1.36.61.37.41.56.99.56,1.75,0,1.03-.27,1.76-.81,2.2-.34.28-.74.42-1.19.42-.36,0-.65-.08-.9-.23-.14-.09-.3-.24-.47-.45v2.4h-.79v-6.56ZM249.59,225.12c.25-.31.37-.77.37-1.39,0-.38-.05-.7-.16-.97-.21-.52-.58-.78-1.13-.78s-.93.27-1.13.82c-.11.29-.16.67-.16,1.12,0,.36.05.67.16.93.21.49.58.73,1.13.73.37,0,.68-.16.92-.46Z"/>
    <path class="cls-34" d="M251.84,220.09h.8v1.31h.75v.65h-.75v3.07c0,.16.06.27.17.33.06.03.16.05.31.05.04,0,.08,0,.12,0s.09,0,.15-.02v.63c-.09.03-.18.04-.28.06-.1.01-.2.02-.32.02-.37,0-.62-.09-.75-.28-.13-.19-.2-.43-.2-.74v-3.12h-.64v-.65h.64v-1.31Z"/>
    <path class="cls-34" d="M254.18,219.66h.8v.9h-.8v-.9ZM254.18,221.43h.8v4.68h-.8v-4.68Z"/>
    <path class="cls-34" d="M259.59,221.87c.42.4.62,1,.62,1.78s-.18,1.38-.55,1.88c-.37.5-.94.74-1.71.74-.64,0-1.15-.22-1.53-.66-.38-.44-.57-1.03-.57-1.76,0-.79.2-1.42.6-1.89.4-.47.93-.7,1.61-.7.6,0,1.11.2,1.53.61ZM259.1,225c.19-.4.29-.84.29-1.32,0-.44-.07-.8-.21-1.07-.22-.43-.6-.65-1.14-.65-.48,0-.83.18-1.04.55-.22.37-.33.81-.33,1.33s.11.92.33,1.25c.22.33.56.5,1.03.5.52,0,.87-.2,1.07-.59Z"/>
    <path class="cls-34" d="M261.19,221.4h.75v.67c.22-.27.46-.47.71-.59s.53-.18.83-.18c.67,0,1.12.23,1.35.7.13.25.19.62.19,1.09v3.02h-.8v-2.97c0-.29-.04-.52-.13-.69-.14-.29-.39-.44-.76-.44-.19,0-.34.02-.46.06-.22.06-.41.19-.57.39-.13.16-.22.32-.26.48-.04.17-.06.4-.06.71v2.46h-.79v-4.71Z"/>
    <path class="cls-34" d="M268.72,223.26c.18-.02.3-.1.37-.23.03-.07.05-.17.05-.3,0-.27-.1-.47-.29-.59s-.46-.18-.82-.18c-.41,0-.7.11-.88.33-.1.12-.16.31-.19.55h-.74c.01-.58.2-.99.56-1.21.36-.23.78-.34,1.26-.34.55,0,1,.11,1.35.32.34.21.51.54.51.98v2.71c0,.08.02.15.05.2.03.05.1.07.21.07.04,0,.07,0,.12,0,.04,0,.09-.01.14-.02v.58c-.12.04-.22.06-.28.07-.07,0-.15.01-.26.01-.27,0-.47-.1-.59-.29-.06-.1-.11-.25-.14-.44-.16.21-.39.39-.69.55-.3.15-.63.23-1,.23-.44,0-.79-.13-1.07-.4-.28-.26-.42-.6-.42-.99,0-.44.14-.77.41-1.01.27-.24.63-.39,1.07-.44l1.26-.16ZM267.05,225.4c.17.13.36.2.59.2.28,0,.55-.06.81-.19.44-.21.66-.56.66-1.05v-.64c-.1.06-.22.11-.37.15-.15.04-.3.07-.45.09l-.48.06c-.29.04-.5.1-.65.18-.25.14-.37.36-.37.66,0,.23.08.41.25.54Z"/>
    <path class="cls-34" d="M271.22,219.66h.79v6.46h-.79v-6.46Z"/>
    <path class="cls-34" d="M276.07,219.97c.18-.27.54-.4,1.07-.4.05,0,.1,0,.15,0s.11,0,.18.01v.72c-.08,0-.14,0-.18-.01-.04,0-.07,0-.1,0-.24,0-.39.06-.44.19-.05.12-.07.44-.07.95h.79v.62h-.79v4.06h-.78v-4.06h-.65v-.62h.65v-.74c.01-.33.07-.57.17-.72Z"/>
    <path class="cls-34" d="M281.61,221.87c.42.4.62,1,.62,1.78s-.18,1.38-.55,1.88c-.37.5-.94.74-1.71.74-.64,0-1.15-.22-1.53-.66-.38-.44-.57-1.03-.57-1.76,0-.79.2-1.42.6-1.89.4-.47.93-.7,1.61-.7.6,0,1.11.2,1.53.61ZM281.12,225c.19-.4.29-.84.29-1.32,0-.44-.07-.8-.21-1.07-.22-.43-.6-.65-1.14-.65-.48,0-.83.18-1.04.55-.22.37-.33.81-.33,1.33s.11.92.33,1.25c.22.33.56.5,1.03.5.52,0,.87-.2,1.07-.59Z"/>
    <path class="cls-34" d="M283.23,221.4h.75v.81c.06-.16.21-.35.45-.58.24-.23.52-.34.83-.34.01,0,.04,0,.07,0s.1,0,.18.02v.83s-.09-.01-.13-.02c-.04,0-.08,0-.13,0-.4,0-.71.13-.92.38-.21.26-.32.55-.32.89v2.71h-.79v-4.71Z"/>
    <path class="cls-34" d="M289.17,224.63c.02.26.09.47.2.61.2.25.56.38,1.06.38.3,0,.56-.06.79-.19.23-.13.34-.32.34-.59,0-.2-.09-.36-.27-.46-.12-.06-.34-.14-.69-.22l-.64-.16c-.41-.1-.71-.21-.9-.33-.35-.21-.52-.51-.52-.89,0-.44.16-.8.49-1.08s.76-.41,1.31-.41c.72,0,1.24.21,1.55.62.2.26.29.55.29.85h-.75c-.02-.18-.08-.34-.19-.48-.19-.21-.51-.31-.97-.31-.31,0-.54.06-.7.17-.16.11-.24.26-.24.45,0,.2.1.37.31.49.12.07.3.14.53.19l.53.13c.58.14.97.27,1.16.4.31.2.46.52.46.95s-.16.78-.48,1.08c-.32.3-.81.46-1.47.46-.71,0-1.21-.16-1.51-.48-.29-.32-.45-.71-.47-1.18h.76Z"/>
    <path class="cls-34" d="M293.36,220.09h.8v1.31h.75v.65h-.75v3.07c0,.16.06.27.17.33.06.03.16.05.31.05.04,0,.08,0,.12,0s.09,0,.15-.02v.63c-.09.03-.18.04-.28.06-.1.01-.2.02-.32.02-.37,0-.62-.09-.75-.28-.13-.19-.2-.43-.2-.74v-3.12h-.64v-.65h.64v-1.31Z"/>
    <path class="cls-34" d="M295.72,221.4h.75v.81c.06-.16.21-.35.45-.58.24-.23.52-.34.83-.34.01,0,.04,0,.07,0s.1,0,.18.02v.83s-.09-.01-.13-.02c-.04,0-.08,0-.13,0-.4,0-.71.13-.92.38-.21.26-.32.55-.32.89v2.71h-.79v-4.71Z"/>
    <path class="cls-34" d="M301.61,221.53c.31.16.55.36.71.61.16.24.26.51.31.83.05.22.07.56.07,1.04h-3.42c.01.48.13.86.34,1.15s.53.43.97.43c.41,0,.74-.14.98-.41.14-.16.23-.34.29-.55h.78c-.02.17-.09.37-.2.58-.12.21-.25.39-.39.52-.24.23-.53.39-.88.47-.19.05-.4.07-.64.07-.58,0-1.08-.21-1.48-.64-.4-.43-.61-1.02-.61-1.79s.2-1.37.61-1.84c.41-.47.94-.71,1.6-.71.33,0,.65.08.96.24ZM301.89,223.38c-.03-.34-.11-.62-.22-.82-.21-.38-.57-.57-1.08-.57-.36,0-.66.13-.91.39-.24.26-.37.6-.39,1h2.59Z"/>
    <path class="cls-34" d="M306.23,223.26c.18-.02.3-.1.37-.23.03-.07.05-.17.05-.3,0-.27-.1-.47-.29-.59s-.46-.18-.82-.18c-.41,0-.7.11-.88.33-.1.12-.16.31-.19.55h-.74c.01-.58.2-.99.56-1.21.36-.23.78-.34,1.26-.34.55,0,1,.11,1.35.32.34.21.51.54.51.98v2.71c0,.08.02.15.05.2.03.05.1.07.21.07.04,0,.07,0,.12,0,.04,0,.09-.01.14-.02v.58c-.12.04-.22.06-.28.07-.07,0-.15.01-.26.01-.27,0-.47-.1-.59-.29-.06-.1-.11-.25-.14-.44-.16.21-.39.39-.69.55-.3.15-.63.23-1,.23-.44,0-.79-.13-1.07-.4-.28-.26-.42-.6-.42-.99,0-.44.14-.77.41-1.01.27-.24.63-.39,1.07-.44l1.26-.16ZM304.56,225.4c.17.13.36.2.59.2.28,0,.55-.06.81-.19.44-.21.66-.56.66-1.05v-.64c-.1.06-.22.11-.37.15-.15.04-.3.07-.45.09l-.48.06c-.29.04-.5.1-.65.18-.25.14-.37.36-.37.66,0,.23.08.41.25.54Z"/>
    <path class="cls-34" d="M308.71,221.4h.78v.67c.19-.23.36-.4.51-.5.26-.18.56-.27.89-.27.38,0,.68.09.91.28.13.11.25.26.35.47.18-.25.38-.44.62-.56.24-.12.5-.18.8-.18.63,0,1.06.23,1.29.69.12.25.18.58.18.99v3.13h-.82v-3.27c0-.31-.08-.53-.24-.65-.16-.12-.35-.18-.57-.18-.31,0-.58.1-.8.31-.22.21-.34.56-.34,1.04v2.74h-.8v-3.07c0-.32-.04-.55-.11-.7-.12-.22-.34-.33-.67-.33-.3,0-.57.12-.81.35-.25.23-.37.65-.37,1.26v2.5h-.79v-4.71Z"/>
    <path class="cls-34" d="M316.21,219.66h.8v.9h-.8v-.9ZM316.21,221.43h.8v4.68h-.8v-4.68Z"/>
    <path class="cls-34" d="M318.21,221.4h.75v.67c.22-.27.46-.47.71-.59s.53-.18.83-.18c.67,0,1.12.23,1.35.7.13.25.19.62.19,1.09v3.02h-.8v-2.97c0-.29-.04-.52-.13-.69-.14-.29-.39-.44-.76-.44-.19,0-.34.02-.46.06-.22.06-.41.19-.57.39-.13.16-.22.32-.26.48-.04.17-.06.4-.06.71v2.46h-.79v-4.71Z"/>
    <path class="cls-34" d="M325.83,221.59c.15.1.3.25.46.45v-.59h.73v4.28c0,.6-.09,1.07-.26,1.42-.33.64-.94.96-1.85.96-.5,0-.93-.11-1.27-.34-.34-.23-.54-.58-.58-1.07h.8c.04.21.11.37.23.49.18.18.46.26.84.26.6,0,1-.21,1.18-.64.11-.25.16-.7.15-1.35-.16.24-.35.42-.57.54-.22.12-.51.18-.88.18-.51,0-.95-.18-1.33-.54-.38-.36-.57-.96-.57-1.8,0-.79.19-1.4.58-1.85.38-.44.85-.66,1.39-.66.37,0,.69.09.96.27ZM325.93,222.44c-.24-.28-.54-.42-.91-.42-.55,0-.93.26-1.14.78-.11.28-.16.64-.16,1.09,0,.53.11.93.32,1.21.21.28.5.42.86.42.57,0,.96-.26,1.19-.77.13-.29.19-.63.19-1.02,0-.58-.12-1.02-.36-1.3Z"/>
  </g>
  <text class="cls-11" transform="translate(30.49 94.34)"><tspan class="cls-1" x="0" y="0">M</tspan><tspan class="cls-19" x="4.4" y="0">,</tspan><tspan class="cls-1" x="6.62" y="0">S</tspan></text>
  <text class="cls-4" transform="translate(55.48 26.44)"><tspan class="cls-37" x="0" y="0">M</tspan><tspan class="cls-44" x="3.44" y="0">&apos;</tspan></text>
  <text class="cls-4" transform="translate(149.84 26.44)"><tspan class="cls-45" x="0" y="0">S</tspan><tspan x="3.12" y="0">&apos;</tspan></text>
  <text class="cls-14" transform="translate(75.99 176.71)"><tspan x="0" y="0">M</tspan><tspan class="cls-36" x="8.04" y="0">B</tspan><tspan class="cls-46" x="13.5" y="0">W</tspan><tspan x="22.29" y="0">T m</tspan><tspan class="cls-47" x="37.72" y="0">a</tspan><tspan class="cls-39" x="42.5" y="0">t</tspan><tspan class="cls-32" x="45.81" y="0">r</tspan><tspan x="49.12" y="0">ix</tspan></text>
</svg>