<?xml version="1.0" encoding="UTF-8"?>
<svg id="Layer_1" data-name="Layer 1" xmlns="http://www.w3.org/2000/svg" version="1.1" viewBox="0 0 487.3 230.4">
  <defs>
    <style>
      .cls-1 {
        opacity: .3;
      }

      .cls-1, .cls-2, .cls-3, .cls-4, .cls-5, .cls-6, .cls-7, .cls-8, .cls-9, .cls-10, .cls-11, .cls-12, .cls-13, .cls-14, .cls-15, .cls-16, .cls-17, .cls-18 {
        isolation: isolate;
      }

      .cls-1, .cls-19 {
        fill: #ed1c24;
      }

      .cls-1, .cls-19, .cls-20, .cls-21 {
        stroke-width: 0px;
      }

      .cls-2 {
        letter-spacing: 0em;
      }

      .cls-2, .cls-3, .cls-5, .cls-6, .cls-7, .cls-8, .cls-9, .cls-11, .cls-12, .cls-13, .cls-15, .cls-21, .cls-16, .cls-17, .cls-18 {
        fill: #231f20;
      }

      .cls-2, .cls-6, .cls-13, .cls-15 {
        font-family: Helvetica, Helvetica;
      }

      .cls-2, .cls-15, .cls-16, .cls-17 {
        font-size: 9px;
      }

      .cls-22 {
        stroke-dasharray: 0 0 0 0 0 0 0 0 0 0 0 0;
      }

      .cls-22, .cls-23, .cls-24, .cls-25 {
        stroke-miterlimit: 10;
      }

      .cls-22, .cls-23, .cls-25 {
        fill: none;
      }

      .cls-22, .cls-25 {
        stroke: #3953a4;
        stroke-width: 1.5px;
      }

      .cls-3 {
        letter-spacing: -.2em;
      }

      .cls-3, .cls-6, .cls-11, .cls-12 {
        font-size: 8px;
      }

      .cls-3, .cls-8, .cls-11, .cls-12, .cls-17, .cls-18 {
        font-family: Consolas, Consolas;
      }

      .cls-23 {
        stroke: #231f20;
      }

      .cls-4 {
        fill: #39b54a;
      }

      .cls-4, .cls-5, .cls-10, .cls-16 {
        font-weight: 700;
      }

      .cls-4, .cls-10 {
        font-family: Consolas-Bold, Consolas;
        font-size: 9.6px;
        letter-spacing: .2em;
      }

      .cls-5 {
        font-size: 7px;
      }

      .cls-5, .cls-16 {
        font-family: Helvetica-Bold, Helvetica;
      }

      .cls-20 {
        fill: #6d6e71;
      }

      .cls-24 {
        fill: #f1f0f0;
        stroke: #cccccb;
        stroke-width: .5px;
      }

      .cls-7 {
        font-family: MyriadPro-Regular, 'Myriad Pro';
      }

      .cls-7, .cls-13 {
        font-size: 10px;
      }

      .cls-8 {
        font-size: 11px;
      }

      .cls-9 {
        font-family: Helvetica-Light, Helvetica;
        font-size: 22.2px;
        font-weight: 300;
      }

      .cls-26 {
        opacity: .2;
      }

      .cls-10 {
        fill: #1d1f21;
      }

      .cls-11 {
        letter-spacing: 0em;
      }

      .cls-17 {
        letter-spacing: -.2em;
      }

      .cls-18 {
        font-size: 9.9px;
      }
    </style>
  </defs>
  <g class="cls-14">
    <g class="cls-14">
      <text class="cls-16" transform="translate(227.7 8.2)"><tspan x="0" y="0" xml:space="preserve">Step 1:  </tspan></text>
    </g>
    <g class="cls-14">
      <text class="cls-15" transform="translate(262.7 8.2)"><tspan x="0" y="0">Approximate shortest superstring</tspan></text>
    </g>
    <g class="cls-14">
      <text class="cls-16" transform="translate(227.7 19)"><tspan x="0" y="0" xml:space="preserve">Step 2:  </tspan></text>
    </g>
    <g class="cls-14">
      <text class="cls-15" transform="translate(262.7 19)"><tspan x="0" y="0">Optimize</tspan></text>
    </g>
    <g class="cls-14">
      <text class="cls-15" transform="translate(300.8 19)"><tspan x="0" y="0">k</tspan></text>
    </g>
    <g class="cls-14">
      <text class="cls-15" transform="translate(305.2 19)"><tspan x="0" y="0">-mer</tspan></text>
    </g>
    <g class="cls-14">
      <text class="cls-15" transform="translate(326.4 19)"><tspan x="0" y="0">mask for max 1</tspan></text>
    </g>
    <g class="cls-14">
      <text class="cls-15" transform="translate(387.9 19)"><tspan x="0" y="0">’</tspan></text>
    </g>
    <g class="cls-14">
      <text class="cls-15" transform="translate(389.8 19)"><tspan x="0" y="0">s</tspan></text>
    </g>
  </g>
  <g class="cls-14">
    <g class="cls-14">
      <text class="cls-16" transform="translate(227.7 77.5)"><tspan x="0" y="0" xml:space="preserve">Step 3:  </tspan></text>
    </g>
    <g class="cls-14">
      <text class="cls-15" transform="translate(262.7 77.5)"><tspan x="0" y="0">Compute MBW</tspan></text>
    </g>
    <g class="cls-14">
      <text class="cls-15" transform="translate(323.8 77.5)"><tspan x="0" y="0">T</tspan></text>
    </g>
  </g>
  <g class="cls-14">
    <g class="cls-14">
      <text class="cls-16" transform="translate(227.7 128.1)"><tspan x="0" y="0" xml:space="preserve">Step 4:  </tspan></text>
    </g>
    <g class="cls-14">
      <text class="cls-15" transform="translate(262.7 128.1)"><tspan x="0" y="0">Compute</tspan></text>
    </g>
    <g class="cls-14">
      <text class="cls-2" transform="translate(301.8 128.1)"><tspan x="0" y="0">k</tspan></text>
    </g>
    <g class="cls-14">
      <text class="cls-15" transform="translate(307.5 128.1)"><tspan x="0" y="0">LCP(</tspan></text>
    </g>
    <g class="cls-14">
      <text class="cls-17" transform="translate(328 128.1)"><tspan x="0" y="0">S</tspan></text>
    </g>
    <g class="cls-14">
      <text class="cls-18" transform="translate(331.2 128.1)"><tspan x="0" y="0">&apos;</tspan></text>
    </g>
    <g class="cls-14">
      <text class="cls-15" transform="translate(335.8 128.1)"><tspan x="0" y="0">)</tspan></text>
    </g>
    <g class="cls-14">
      <text class="cls-5" transform="translate(227.7 136.5)"><tspan x="0" y="0">(optional)</tspan></text>
    </g>
  </g>
  <g class="cls-14">
    <g class="cls-14">
      <text class="cls-16" transform="translate(227.7 180.8)"><tspan x="0" y="0" xml:space="preserve">Step 5:  </tspan></text>
    </g>
    <g class="cls-14">
      <text class="cls-15" transform="translate(262.7 180.8)"><tspan x="0" y="0">Build low-level rank/select data structures</tspan></text>
    </g>
  </g>
  <g class="cls-14">
    <g class="cls-14">
      <text class="cls-16" transform="translate(0 204.5)"><tspan x="0" y="0" xml:space="preserve">Output:   </tspan></text>
    </g>
    <g class="cls-14">
      <text class="cls-15" transform="translate(40 204.5)"><tspan x="0" y="0">FMSI index:</tspan></text>
    </g>
  </g>
  <g>
    <g class="cls-14">
      <g class="cls-14">
        <text class="cls-16" transform="translate(0 8.5)"><tspan x="0" y="0">Input:</tspan></text>
      </g>
    </g>
    <g class="cls-14">
      <g class="cls-14">
        <text class="cls-8" transform="translate(29.8 9)"><tspan x="0" y="0" xml:space="preserve"> K={CAG, GGT, GTA, TAG}</tspan></text>
      </g>
    </g>
  </g>
  <g>
    <line class="cls-23" x1="172.1" y1="6.2" x2="238.1" y2="37.7"/>
    <path class="cls-21" d="M237.3,37.3l-.2-2.1h0l2.1,2.3c.8.6,1.6,1.3,2.5,1.9-1-.2-2-.5-3.1-.7l-3.1-.2h0l1.8-1.2h0Z"/>
  </g>
  <g>
    <line class="cls-23" x1="175.8" y1="191.9" x2="241.8" y2="160.5"/>
    <path class="cls-21" d="M176.6,191.5l.2-2.1h0l-2.1,2.3c-.8.6-1.6,1.3-2.5,1.9,1-.2,2-.5,3.1-.7l3.1-.2h0l-1.8-1.2h0Z"/>
  </g>
  <g>
    <rect class="cls-24" x="44.7" y="28.9" width="123.1" height="138.6"/>
    <g>
      <g class="cls-26">
        <rect class="cls-19" x="149.8" y="29.4" width="6.7" height="135"/>
      </g>
      <g class="cls-26">
        <rect class="cls-19" x="54.7" y="32.5" width="6.7" height="135"/>
      </g>
      <g class="cls-14">
        <g class="cls-14">
          <text class="cls-10" transform="translate(49.7 40.9)"><tspan x="0" y="0">$ C A G G T A G</tspan></text>
        </g>
        <g class="cls-14">
          <text class="cls-10" transform="translate(49.7 58)"><tspan x="0" y="0">A G $ C A G G T</tspan></text>
        </g>
        <g class="cls-14">
          <text class="cls-10" transform="translate(49.7 75)"><tspan x="0" y="0">A G G T A G $ C</tspan></text>
        </g>
        <g class="cls-14">
          <text class="cls-10" transform="translate(49.7 92)"><tspan x="0" y="0">C A G G T A G $</tspan></text>
        </g>
        <g class="cls-14">
          <text class="cls-10" transform="translate(49.7 109.1)"><tspan x="0" y="0">G $ C A G G T A</tspan></text>
        </g>
        <g class="cls-14">
          <text class="cls-10" transform="translate(49.7 126.1)"><tspan x="0" y="0">G G T A G $ C A</tspan></text>
        </g>
        <g class="cls-14">
          <text class="cls-10" transform="translate(49.7 143.2)"><tspan x="0" y="0">G T A G $ C A G</tspan></text>
        </g>
        <g class="cls-14">
          <text class="cls-10" transform="translate(49.7 160.2)"><tspan x="0" y="0">T A G $ C A G G</tspan></text>
        </g>
      </g>
      <g class="cls-14">
        <g class="cls-14">
          <text class="cls-4" transform="translate(55.8 45.2)"><tspan x="0" y="0">$ 1 0 1 1 1 0 0</tspan></text>
        </g>
        <g class="cls-14">
          <text class="cls-4" transform="translate(55.8 62.3)"><tspan x="0" y="0">0 0 $ 1 0 1 1 1</tspan></text>
        </g>
        <g class="cls-14">
          <text class="cls-4" transform="translate(55.8 79.3)"><tspan x="0" y="0">0 1 1 1 0 0 $ 1</tspan></text>
        </g>
        <g class="cls-14">
          <text class="cls-4" transform="translate(55.8 96.4)"><tspan x="0" y="0">1 0 1 1 1 0 0 $</tspan></text>
        </g>
        <g class="cls-14">
          <text class="cls-4" transform="translate(55.8 113.4)"><tspan x="0" y="0">0 $ 1 0 1 1 1 0</tspan></text>
        </g>
        <g class="cls-14">
          <text class="cls-4" transform="translate(55.8 130.4)"><tspan x="0" y="0">1 1 1 0 0 $ 1 0</tspan></text>
        </g>
        <g class="cls-14">
          <text class="cls-4" transform="translate(55.8 147.5)"><tspan x="0" y="0">1 1 0 0 $ 1 0 1</tspan></text>
        </g>
        <g class="cls-14">
          <text class="cls-4" transform="translate(55.8 164.5)"><tspan x="0" y="0">1 0 0 $ 1 0 1 1</tspan></text>
        </g>
      </g>
      <g>
        <polyline class="cls-25" points="164.8 98.3 164.8 99.3 163.8 99.3"/>
        <line class="cls-22" x1="161.8" y1="99.3" x2="49.5" y2="99.3"/>
        <polyline class="cls-25" points="48.5 99.3 47.5 99.3 47.5 98.3"/>
        <line class="cls-22" x1="47.5" y1="96.4" x2="47.5" y2="85.6"/>
        <polyline class="cls-25" points="47.5 84.6 47.5 83.6 48.5 83.6"/>
        <line class="cls-22" x1="50.5" y1="83.6" x2="162.8" y2="83.6"/>
        <polyline class="cls-25" points="163.8 83.6 164.8 83.6 164.8 84.6"/>
        <line class="cls-22" x1="164.8" y1="86.5" x2="164.8" y2="97.4"/>
      </g>
    </g>
  </g>
  <g>
    <g class="cls-14">
      <g class="cls-14">
        <text class="cls-9" transform="translate(263.5 47.6)"><tspan x="0" y="0" xml:space="preserve">(        ) =:</tspan></text>
      </g>
      <g class="cls-14">
        <text class="cls-9" transform="translate(358.3 47.6)"><tspan x="0" y="0">( )</tspan></text>
      </g>
    </g>
    <g>
      <path class="cls-21" d="M278.4,37.6c-.5.2-1,.3-1.6.3-.9,0-1.6-.3-2-.8-.5-.5-.7-1.3-.7-2.4s0-1,.2-1.4.3-.8.6-1c.2-.3.5-.5.9-.7.4-.1.7-.2,1.2-.2h.8c.2,0,.5.1.7.2v.8c-.2,0-.5-.2-.7-.3s-.5,0-.8,0-.6,0-.8.2c-.2,0-.4.3-.6.5s-.3.5-.4.8c0,.3-.1.7-.1,1,0,.8.2,1.4.5,1.8s.8.6,1.5.6h.8c.3,0,.5-.2.7-.3v.8h-.2Z"/>
      <path class="cls-21" d="M284.4,37.8h-.9l-.4-1.4h-2.6l-.4,1.4h-.9l2.1-6.3h1.2l2.1,6.3h-.2ZM282.8,35.7l-1.1-3.4-1.1,3.4h2.2Z"/>
      <path class="cls-21" d="M289.3,32.6c-.2,0-.5-.2-.7-.3h-.8c-.3,0-.6,0-.9.2s-.5.3-.7.5-.3.5-.4.8-.1.6-.1,1,0,.7.1,1,.2.6.4.8c.2.2.4.4.6.5s.6.2.9.2h.8v-2h-1.3v-.7h2.1v3.2c-.1,0-.3,0-.4.2s-.3,0-.5,0h-.9c-.4,0-.8,0-1.2-.2s-.6-.3-.9-.6c-.2-.3-.4-.6-.6-1-.1-.4-.2-.8-.2-1.4s0-1,.2-1.4.4-.8.6-1c.3-.3.6-.5,1-.6s.8-.2,1.2-.2h.8c.3,0,.5.1.7.2v.9h0l.2-.2Z"/>
      <path class="cls-21" d="M294.8,32.6c-.2,0-.5-.2-.7-.3h-.8c-.3,0-.6,0-.9.2s-.5.3-.7.5-.3.5-.4.8-.1.6-.1,1,0,.7.1,1,.2.6.4.8c.2.2.4.4.6.5s.6.2.9.2h.8v-2h-1.3v-.7h2.1v3.2c-.1,0-.3,0-.4.2s-.3,0-.5,0h-.9c-.4,0-.8,0-1.2-.2s-.6-.3-.9-.6c-.2-.3-.4-.6-.6-1-.1-.4-.2-.8-.2-1.4s0-1,.2-1.4.4-.8.6-1c.3-.3.6-.5,1-.6s.8-.2,1.2-.2h.8c.3,0,.5.1.7.2v.9h0l.2-.2Z"/>
      <path class="cls-21" d="M300.3,32.2h-1.9v5.6h-.9v-5.6h-1.9v-.7h4.6v.7h0Z"/>
      <path class="cls-21" d="M306.1,37.8h-.9l-.4-1.4h-2.6l-.4,1.4h-.9l2.1-6.3h1.2l2.1,6.3h-.2ZM304.5,35.7l-1.1-3.4-1.1,3.4h2.2Z"/>
      <path class="cls-21" d="M311,32.6c-.2,0-.5-.2-.7-.3h-.8c-.3,0-.6,0-.9.2s-.5.3-.7.5-.3.5-.4.8-.1.6-.1,1,0,.7.1,1,.2.6.4.8c.2.2.4.4.6.5s.6.2.9.2h.8v-2h-1.3v-.7h2.1v3.2c-.1,0-.3,0-.4.2s-.3,0-.5,0h-.9c-.4,0-.8,0-1.2-.2s-.6-.3-.9-.6c-.2-.3-.4-.6-.6-1-.1-.4-.2-.8-.2-1.4s0-1,.2-1.4.4-.8.6-1c.3-.3.6-.5,1-.6s.8-.2,1.2-.2h.8c.3,0,.5.1.7.2v.9h0l.2-.2Z"/>
      <path class="cls-21" d="M314.5,30.6h.7v.9h.9v.7c-.2,0-.4,0-.5,0h-.5l-.3,2.1c.2,0,.4.2.6.3.2,0,.4.2.6.3s.3.3.4.5.2.4.2.7,0,.5-.2.7-.3.4-.5.5c-.2.2-.4.3-.7.3s-.6,0-.9.2l-.2,1.2h-.7l.2-1.2h-.8c-.2,0-.4,0-.6,0v-.8c.2,0,.4,0,.7.2h.8l.3-2.2c-.2,0-.4-.2-.6-.3-.2,0-.4-.2-.5-.3s-.3-.3-.4-.5-.1-.4-.1-.6,0-.4.1-.6.2-.4.4-.5c.2-.2.4-.3.7-.4.3-.1.6-.2,1-.2v-.9h.1-.2ZM314.3,32.2c-.4,0-.7,0-.9.3s-.3.3-.3.6,0,.4.2.5c.1,0,.4.3.7.4l.2-1.8h0ZM314.3,37.1c.4,0,.8,0,1-.3s.3-.4.3-.7v-.3c0,0-.1-.2-.2-.2,0,0-.2,0-.3-.2s-.3,0-.4-.2l-.2,1.9h-.2Z"/>
      <path class="cls-21" d="M370.8,36.1c0,.3,0,.6-.2.8s-.3.4-.5.6-.5.3-.8.3-.6,0-1,0h-1.8v-.8c.2,0,.5.2.8.2h1.7c.2,0,.4,0,.5-.2.1,0,.2-.2.3-.3v-.4c0-.1,0-.3-.1-.4-.1,0-.2-.2-.4-.3-.2,0-.3-.2-.5-.3-.2,0-.4-.2-.6-.2s-.4-.2-.6-.3c-.2,0-.4-.2-.5-.3s-.3-.3-.4-.5-.1-.4-.1-.6,0-.4.1-.6.2-.4.4-.6c.2-.2.4-.3.7-.4.3-.1.6-.1,1.1-.1s.2,0,.3,0h1.1v.8c-.2,0-.5,0-.7-.2h-.7c-.5,0-.9,0-1.1.2s-.4.4-.4.7,0,.3.1.4.2.2.4.3.3.2.5.3c.2,0,.4.2.6.2s.4.2.6.3c.2,0,.4.2.5.3s.3.3.4.5.1.4.1.7h0l.2-.2Z"/>
      <path class="cls-21" d="M278.4,49.7h-4v-.8h1.6v-4.6l-1.5.8-.3-.7,2-1.1h.7v5.5h1.4v.8h0Z"/>
      <path class="cls-21" d="M284,46.5c0,.5,0,.9-.1,1.3-.1.4-.2.7-.4,1s-.4.5-.7.7-.6.2-1,.2-.6,0-.9-.2c-.3,0-.5-.3-.7-.6s-.4-.6-.5-1-.2-.9-.2-1.5,0-.9.1-1.3.2-.7.4-1,.4-.5.7-.7.6-.2,1-.2.6,0,.9.2c.3,0,.5.3.7.6s.4.6.5,1,.2.9.2,1.5h0ZM280.3,46.5v.6l2.7-2c0-.2-.1-.3-.2-.5,0,0-.2-.2-.3-.3-.1,0-.2-.2-.4-.2h-.4c-.1,0-.4,0-.6.2s-.3.3-.5.5c-.1.2-.2.5-.3.8s-.1.7-.1,1.1h0v-.2ZM283.2,46.5v-.6l-2.7,2c0,.2.1.3.2.5s.2.3.3.4c.1,0,.2.2.4.2h.5c.2,0,.4,0,.6-.2s.3-.3.5-.5c.1-.2.2-.5.3-.8,0-.3.1-.7.1-1.1h-.2Z"/>
      <path class="cls-21" d="M289.3,49.7h-4v-.8h1.6v-4.6l-1.5.8-.3-.7,2-1.1h.7v5.5h1.4v.8h0Z"/>
      <path class="cls-21" d="M294.7,49.7h-4v-.8h1.6v-4.6l-1.5.8-.3-.7,2-1.1h.7v5.5h1.4v.8h0Z"/>
      <path class="cls-21" d="M300.1,49.7h-4v-.8h1.6v-4.6l-1.5.8-.3-.7,2-1.1h.7v5.5h1.4v.8h0Z"/>
      <path class="cls-21" d="M305.8,46.5c0,.5,0,.9-.1,1.3-.1.4-.2.7-.4,1s-.4.5-.7.7-.6.2-1,.2-.6,0-.9-.2c-.3,0-.5-.3-.7-.6s-.4-.6-.5-1-.2-.9-.2-1.5,0-.9.1-1.3.2-.7.4-1,.4-.5.7-.7.6-.2,1-.2.6,0,.9.2c.3,0,.5.3.7.6s.4.6.5,1,.2.9.2,1.5h0ZM302,46.5v.6l2.7-2c0-.2-.1-.3-.2-.5,0,0-.2-.2-.3-.3-.1,0-.2-.2-.4-.2h-.4c-.1,0-.4,0-.6.2s-.3.3-.5.5c-.1.2-.2.5-.3.8s-.1.7-.1,1.1h0v-.2ZM304.9,46.5v-.6l-2.7,2c0,.2.1.3.2.5s.2.3.3.4c.1,0,.2.2.4.2h.5c.2,0,.4,0,.6-.2s.3-.3.5-.5c.1-.2.2-.5.3-.8,0-.3.1-.7.1-1.1h-.2Z"/>
      <path class="cls-21" d="M311.2,46.5c0,.5,0,.9-.1,1.3-.1.4-.2.7-.4,1s-.4.5-.7.7-.6.2-1,.2-.6,0-.9-.2c-.3,0-.5-.3-.7-.6s-.4-.6-.5-1-.2-.9-.2-1.5,0-.9.1-1.3.2-.7.4-1,.4-.5.7-.7.6-.2,1-.2.6,0,.9.2c.3,0,.5.3.7.6s.4.6.5,1,.2.9.2,1.5h0ZM307.5,46.5v.6l2.7-2c0-.2-.1-.3-.2-.5,0,0-.2-.2-.3-.3-.1,0-.2-.2-.4-.2h-.4c-.1,0-.4,0-.6.2s-.3.3-.5.5c-.1.2-.2.5-.3.8s-.1.7-.1,1.1h0v-.2ZM310.4,46.5v-.6l-2.7,2c0,.2.1.3.2.5s.2.3.3.4c.1,0,.2.2.4.2h.5c.2,0,.4,0,.6-.2s.3-.3.5-.5c.1-.2.2-.5.3-.8,0-.3.1-.7.1-1.1h-.2Z"/>
      <path class="cls-21" d="M314.5,42.5h.7v.9h.9v.7c-.2,0-.4,0-.5,0h-.5l-.3,2.1c.2,0,.4.2.6.3.2,0,.4.2.6.3s.3.3.4.5.2.4.2.7,0,.5-.2.7-.3.4-.5.5c-.2.2-.4.3-.7.3s-.6,0-.9.2l-.2,1.2h-.7l.2-1.2h-.8c-.2,0-.4,0-.6,0v-.8c.2,0,.4,0,.7.2h.8l.3-2.2c-.2,0-.4-.2-.6-.3-.2,0-.4-.2-.5-.3s-.3-.3-.4-.5-.1-.4-.1-.6,0-.4.1-.6.2-.4.4-.5c.2-.2.4-.3.7-.4.3,0,.6-.2,1-.2v-.9h.1-.2ZM314.3,44.1c-.4,0-.7,0-.9.3s-.3.3-.3.6,0,.4.2.5c.1,0,.4.3.7.4l.2-1.8h0ZM314.3,48.9c.4,0,.8,0,1-.3s.3-.4.3-.7v-.3c0,0-.1-.2-.2-.2,0,0-.2,0-.3-.2s-.3,0-.4-.2l-.2,1.9h-.2Z"/>
      <path class="cls-21" d="M371.2,49.7h-.8v-3.9c-.1,0-.2-1.5-.2-1.5l-.3.9-.9,2.5h-.6l-.9-2.4-.3-1v5.5h-.9l.3-6.3h1l.9,2.4.3.8.3-.8.9-2.4h1l.3,6.3h0Z"/>
    </g>
    <g>
      <polyline class="cls-25" points="328.2 54.3 328.2 55.3 327.3 55.3"/>
      <line class="cls-22" x1="325.3" y1="55.3" x2="264.8" y2="55.3"/>
      <polyline class="cls-25" points="263.9 55.3 262.9 55.3 262.9 54.3"/>
      <line class="cls-22" x1="262.9" y1="52.4" x2="262.9" y2="30.5"/>
      <polyline class="cls-25" points="262.9 29.6 262.9 28.6 263.9 28.6"/>
      <line class="cls-22" x1="265.8" y1="28.6" x2="326.3" y2="28.6"/>
      <polyline class="cls-25" points="327.3 28.6 328.2 28.6 328.2 29.6"/>
      <line class="cls-22" x1="328.2" y1="31.5" x2="328.2" y2="53.3"/>
    </g>
  </g>
  <g>
    <rect class="cls-1" x="342.4" y="82.3" width="59.8" height="23.5"/>
    <g>
      <g id="MBWT_:_" data-name="MBWT : " class="cls-14">
        <g class="cls-14">
          <text class="cls-13" transform="translate(261.9 98.1)"><tspan x="0" y="0">MBWT</tspan></text>
        </g>
        <g class="cls-14">
          <text class="cls-9" transform="translate(295.2 100.1)"><tspan x="0" y="0" xml:space="preserve">( ) = (       ) =:</tspan></text>
        </g>
        <g class="cls-14">
          <text class="cls-9" transform="translate(433.2 100.1)"><tspan x="0" y="0">(</tspan></text>
        </g>
        <g class="cls-14">
          <text class="cls-9" transform="translate(447.6 100.1)"><tspan x="0" y="0">)</tspan></text>
        </g>
      </g>
      <g>
        <path class="cls-21" d="M307.3,88.6c0,.3,0,.6-.2.8s-.3.4-.5.6-.5.3-.8.3-.6,0-1,0h-1.8v-.8c.2,0,.5.2.8.2h1.7c.2,0,.4,0,.5-.2.1,0,.2-.2.3-.3v-.4c0,0,0-.3-.1-.4s-.2-.2-.4-.3c-.2,0-.3-.2-.5-.3s-.4-.2-.6-.2-.4-.2-.6-.3c-.2,0-.4-.2-.5-.3-.1,0-.3-.3-.4-.5s-.1-.4-.1-.6,0-.4.1-.6.2-.4.4-.6c.2-.2.4-.3.7-.4.3,0,.6-.2,1.1-.2s.2,0,.3,0h1.1v.8c-.2,0-.5,0-.7-.2h-.7c-.5,0-.9,0-1.1.2s-.4.4-.4.7,0,.3.1.4.2.2.4.3.3.2.5.3.4.2.6.2.4.2.6.3c.2,0,.4.2.5.3s.3.3.4.5.1.4.1.7h.2Z"/>
        <path class="cls-21" d="M356.2,85.1c-.2,0-.5-.2-.7-.3h-.8c-.3,0-.6,0-.9.2s-.5.3-.7.5-.3.5-.4.8-.1.6-.1,1,0,.7.1,1,.2.6.4.8c.2.2.4.4.6.5s.6.2.9.2h.8v-2h-1.3v-.7h2.1v3.2c-.1,0-.3,0-.4.2s-.3,0-.5,0h-.9c-.4,0-.8,0-1.2-.2s-.6-.3-.9-.6c-.2-.3-.4-.6-.6-1-.1-.4-.2-.8-.2-1.4s0-1,.2-1.4c.1-.4.4-.8.6-1,.3-.3.6-.5,1-.7s.8-.2,1.2-.2h.8c.3,0,.5,0,.7.2v.8h.2Z"/>
        <path class="cls-21" d="M361.8,84.8h-1.9v5.6h-.9v-5.6h-1.9v-.7h4.6v.7h0Z"/>
        <path class="cls-21" d="M367,90.1c-.5.2-1,.3-1.6.3-.9,0-1.6-.3-2-.8-.5-.5-.7-1.3-.7-2.4s0-1,.2-1.4.3-.8.6-1c.2-.3.5-.5.9-.7s.7-.2,1.2-.2h.8c.2,0,.5,0,.7.2v.8c-.2,0-.5-.2-.7-.3s-.5,0-.8,0-.6,0-.8.2-.4.3-.6.5-.3.5-.4.8c0,.3-.1.7-.1,1,0,.8.2,1.4.5,1.8s.8.6,1.5.6h.8c.3,0,.5-.2.7-.3v.8h-.2Z"/>
        <path class="cls-21" d="M370.5,83.1h.7v.9h.9v.7c-.2,0-.4,0-.5,0h-.5l-.3,2.1c.2,0,.4.2.6.3.2,0,.4.2.6.3.2,0,.3.3.4.5s.2.4.2.7,0,.5-.2.7-.3.4-.5.5c-.2.2-.4.3-.7.3s-.6,0-.9.2l-.2,1.2h-.7l.2-1.2h-.8c-.2,0-.4,0-.6,0v-.8c.2,0,.4,0,.7.2s.5,0,.8,0l.3-2.2c-.2,0-.4-.2-.6-.3-.2,0-.4-.2-.5-.3s-.3-.3-.4-.5-.1-.4-.1-.6,0-.4.1-.6c0-.2.2-.4.4-.5.2-.2.4-.3.7-.4.3,0,.6-.2,1-.2v-.9h.1-.2ZM370.3,84.8c-.4,0-.7,0-.9.3s-.3.3-.3.6,0,.4.2.6.4.3.7.4l.2-1.8h0ZM370.4,89.6c.4,0,.8,0,1-.3s.3-.4.3-.7v-.3c0-.1-.1-.2-.2-.2,0,0-.2,0-.3-.2s-.3,0-.4-.2l-.2,1.9h-.2Z"/>
        <path class="cls-21" d="M378.5,90.3h-.9l-.4-1.4h-2.6l-.4,1.4h-.9l2.1-6.3h1.2l2.1,6.3h-.2ZM376.9,88.2l-1.1-3.4-1.1,3.4h2.2Z"/>
        <path class="cls-21" d="M383.9,90.3h-.9l-.4-1.4h-2.6l-.4,1.4h-.9l2.1-6.3h1.2l2.1,6.3h-.2ZM382.3,88.2l-1.1-3.4-1.1,3.4h2.2Z"/>
        <path class="cls-21" d="M388.8,85.1c-.2,0-.5-.2-.7-.3h-.8c-.3,0-.6,0-.9.2s-.5.3-.7.5-.3.5-.4.8-.1.6-.1,1,0,.7.1,1,.2.6.4.8c.2.2.4.4.6.5s.6.2.9.2h.8v-2h-1.3v-.7h2.1v3.2c-.1,0-.3,0-.4.2s-.3,0-.5,0h-.9c-.4,0-.8,0-1.2-.2s-.6-.3-.9-.6c-.2-.3-.4-.6-.6-1-.1-.4-.2-.8-.2-1.4s0-1,.2-1.4c.1-.4.4-.8.6-1,.3-.3.6-.5,1-.7s.8-.2,1.2-.2h.8c.3,0,.5,0,.7.2v.8h.2Z"/>
        <path class="cls-21" d="M394.3,85.1c-.2,0-.5-.2-.7-.3h-.8c-.3,0-.6,0-.9.2s-.5.3-.7.5-.3.5-.4.8-.1.6-.1,1,0,.7.1,1,.2.6.4.8c.2.2.4.4.6.5s.6.2.9.2h.8v-2h-1.3v-.7h2.1v3.2c-.1,0-.3,0-.4.2s-.3,0-.5,0h-.9c-.4,0-.8,0-1.2-.2s-.6-.3-.9-.6c-.2-.3-.4-.6-.6-1-.1-.4-.2-.8-.2-1.4s0-1,.2-1.4c.1-.4.4-.8.6-1,.3-.3.6-.5,1-.7s.8-.2,1.2-.2h.8c.3,0,.5,0,.7.2v.8h.2Z"/>
        <path class="cls-21" d="M444.8,88.6c0,.3,0,.6-.2.8s-.3.4-.5.6-.5.3-.8.3-.6,0-1,0h-1.8v-.8c.2,0,.5.2.8.2h1.7c.2,0,.4,0,.5-.2.1,0,.2-.2.3-.3v-.4c0,0,0-.3-.1-.4s-.2-.2-.4-.3c-.2,0-.3-.2-.5-.3s-.4-.2-.6-.2-.4-.2-.6-.3c-.2,0-.4-.2-.5-.3-.1,0-.3-.3-.4-.5s-.1-.4-.1-.6,0-.4.1-.6.2-.4.4-.6c.2-.2.4-.3.7-.4.3,0,.6-.2,1.1-.2s.2,0,.3,0h1.1v.8c-.2,0-.5,0-.7-.2h-.7c-.5,0-.9,0-1.1.2s-.4.4-.4.7,0,.3.1.4.2.2.4.3.3.2.5.3.4.2.6.2.4.2.6.3c.2,0,.4.2.5.3s.3.3.4.5.1.4.1.7h.2Z"/>
        <path class="cls-21" d="M447.1,83.5v2.3h-1v-2.3c-.1,0,1,0,1,0Z"/>
        <path class="cls-21" d="M307.3,102.2h-.8v-3.9c-.1,0-.2-1.5-.2-1.5l-.3.9-.9,2.5h-.6l-.9-2.4-.3-1v5.5h-.9l.3-6.3h1l.9,2.4.3.8.3-.8.9-2.4h1l.3,6.3h0Z"/>
        <path class="cls-21" d="M353.9,95h.7v.9h.9v.7c-.2,0-.4,0-.5,0h-.5l-.3,2.1c.2,0,.4.2.6.3.2,0,.4.2.6.3.2,0,.3.3.4.5s.2.4.2.7,0,.5-.2.7-.3.4-.5.5c-.2.2-.4.3-.7.3s-.6,0-.9.2l-.2,1.2h-.7l.2-1.2h-.8c-.2,0-.4,0-.6,0v-.8c.2,0,.4,0,.7.2s.5,0,.8,0l.3-2.2c-.2,0-.4-.2-.6-.3-.2,0-.4-.2-.5-.3s-.3-.3-.4-.5-.1-.4-.1-.6,0-.4.1-.6c0-.2.2-.4.4-.5.2-.2.4-.3.7-.4.3,0,.6-.2,1-.2v-.9h.1-.2ZM353.6,96.6c-.4,0-.7,0-.9.3s-.3.3-.3.6,0,.4.2.6.4.3.7.4l.2-1.8h0ZM353.7,101.4c.4,0,.8,0,1-.3s.3-.4.3-.7v-.3c0-.1-.1-.2-.2-.2,0,0-.2,0-.3-.2s-.3,0-.4-.2l-.2,1.9h-.2Z"/>
        <path class="cls-21" d="M361.4,99c0,.5,0,.9-.1,1.3s-.2.7-.4,1-.4.5-.7.7-.6.2-1,.2-.6,0-.9-.2c-.3,0-.5-.3-.7-.6s-.4-.6-.5-1-.2-.9-.2-1.4,0-.9.1-1.3.2-.7.4-1,.4-.5.7-.7.6-.2,1-.2.6,0,.9.2c.3,0,.5.3.7.6.2.3.4.6.5,1s.2.9.2,1.4h0ZM357.7,99v.6l2.7-2c0-.2-.1-.3-.2-.4,0,0-.2-.2-.3-.3-.1,0-.2-.2-.4-.2h-.4c-.1,0-.4,0-.6.2s-.3.3-.5.5c-.1.2-.2.5-.3.8s-.1.7-.1,1.1h0v-.3ZM360.6,99.1v-.6l-2.7,2c0,.2.1.3.2.5s.2.3.3.4c.1,0,.2.2.4.2h.5c.2,0,.4,0,.6-.2s.3-.3.5-.5.2-.5.3-.8.1-.7.1-1.1h-.2Z"/>
        <path class="cls-21" d="M366.9,99c0,.5,0,.9-.1,1.3s-.2.7-.4,1-.4.5-.7.7-.6.2-1,.2-.6,0-.9-.2c-.3,0-.5-.3-.7-.6s-.4-.6-.5-1-.2-.9-.2-1.4,0-.9.1-1.3.2-.7.4-1,.4-.5.7-.7.6-.2,1-.2.6,0,.9.2c.3,0,.5.3.7.6.2.3.4.6.5,1s.2.9.2,1.4h0ZM363.1,99v.6l2.7-2c0-.2-.1-.3-.2-.4,0,0-.2-.2-.3-.3-.1,0-.2-.2-.4-.2h-.4c-.1,0-.4,0-.6.2s-.3.3-.5.5c-.1.2-.2.5-.3.8s-.1.7-.1,1.1h0v-.3ZM366,99.1v-.6l-2.7,2c0,.2.1.3.2.5s.2.3.3.4c.1,0,.2.2.4.2h.5c.2,0,.4,0,.6-.2s.3-.3.5-.5.2-.5.3-.8.1-.7.1-1.1h-.2Z"/>
        <path class="cls-21" d="M372.1,102.2h-4v-.8h1.6v-4.6l-1.5.8-.3-.7,2-1.1h.7v5.6h1.4v.8h0Z"/>
        <path class="cls-21" d="M377.7,99c0,.5,0,.9-.1,1.3s-.2.7-.4,1-.4.5-.7.7-.6.2-1,.2-.6,0-.9-.2c-.3,0-.5-.3-.7-.6s-.4-.6-.5-1-.2-.9-.2-1.4,0-.9.1-1.3.2-.7.4-1,.4-.5.7-.7.6-.2,1-.2.6,0,.9.2c.3,0,.5.3.7.6.2.3.4.6.5,1s.2.9.2,1.4h0ZM374,99v.6l2.7-2c0-.2-.1-.3-.2-.4,0,0-.2-.2-.3-.3-.1,0-.2-.2-.4-.2h-.4c-.1,0-.4,0-.6.2s-.3.3-.5.5c-.1.2-.2.5-.3.8s-.1.7-.1,1.1h0v-.3ZM376.9,99.1v-.6l-2.7,2c0,.2.1.3.2.5s.2.3.3.4c.1,0,.2.2.4.2h.5c.2,0,.4,0,.6-.2s.3-.3.5-.5.2-.5.3-.8.1-.7.1-1.1h-.2Z"/>
        <path class="cls-21" d="M383,102.2h-4v-.8h1.6v-4.6l-1.5.8-.3-.7,2-1.1h.7v5.6h1.4v.8h0Z"/>
        <path class="cls-21" d="M388.4,102.2h-4v-.8h1.6v-4.6l-1.5.8-.3-.7,2-1.1h.7v5.6h1.4v.8h0Z"/>
        <path class="cls-21" d="M393.8,102.2h-4v-.8h1.6v-4.6l-1.5.8-.3-.7,2-1.1h.7v5.6h1.4v.8h0Z"/>
        <path class="cls-21" d="M445.4,102.2h-.8v-3.9c-.1,0-.2-1.5-.2-1.5l-.3.9-.9,2.5h-.6l-.9-2.4-.3-1v5.5h-.9l.3-6.3h1l.9,2.4.3.8.3-.8.9-2.4h1l.3,6.3h0Z"/>
        <path class="cls-21" d="M447.7,95.4v2.3h-1v-2.3c-.1,0,1,0,1,0Z"/>
      </g>
    </g>
  </g>
  <g>
    <path class="cls-23" d="M243.4,102.3c-39.8,0-42.9,47.8-6,51.1"/>
    <path class="cls-21" d="M236.5,153.3l-1-1.9h0l2.9,1.3c1,.3,2,.6,3,.9-1,.2-2.1.3-3.1.5l-3,1h0l1.2-1.8h0Z"/>
  </g>
  <g>
    <path class="cls-23" d="M243.4,45.2c-39.8,0-42.9,47.8-6,51.1"/>
    <path class="cls-21" d="M236.5,96.2l-1-1.9h0l2.9,1.3c1,.3,2,.6,3,.8-1,.2-2.1.3-3.1.5l-3,1h0l1.2-1.8h0Z"/>
  </g>
  <g>
    <path class="cls-21" d="M101.8,198.1h1l2.3,6.5h-1l-.7-1.9h-2.6l-.7,1.9h-.9l2.4-6.5h.2ZM103.3,201.9l-1-2.9-1,2.9h2Z"/>
    <path class="cls-21" d="M105.6,206.3c.5-.9.8-1.6.9-2,.2-.6.3-1.4.3-2.2s0-1.6-.4-2.3c-.2-.4-.4-1.1-.9-1.9h.5c.4.7.7,1.2.8,1.3,0,.2.2.4.3.7,0,.4.2.7.3,1.1s0,.7,0,1c0,.9,0,1.6-.4,2.3-.2.4-.5,1.1-1.1,1.9h-.6.3Z"/>
    <path class="cls-21" d="M117.9,199.8h.8v.8c0-.2.2-.4.4-.6s.5-.3.8-.3h.2v.8h-.2c-.4,0-.7.1-.9.4-.2.3-.3.6-.3.9v2.7h-.8v-4.7h0Z"/>
    <path class="cls-21" d="M123.4,201.7c.2,0,.3-.1.4-.2v-.3c0-.3,0-.5-.3-.6s-.5-.2-.8-.2-.7.1-.9.3c0,.1-.2.3-.2.6h-.7c0-.6.2-1,.6-1.2s.8-.3,1.3-.3,1,.1,1.3.3.5.5.5,1v2.9h.4v.6h-.6c-.3,0-.5-.1-.6-.3,0-.1,0-.2,0-.4-.2.2-.4.4-.7.6s-.6.2-1,.2-.8-.1-1.1-.4c-.3-.3-.4-.6-.4-1s0-.8.4-1,.6-.4,1.1-.4l1.3-.2h0ZM121.7,203.8c.2.1.4.2.6.2s.6,0,.8-.2c.4-.2.7-.6.7-1.1v-.6s-.2.1-.4.1h-.9c-.3,0-.5.2-.7.2-.2.1-.4.4-.4.7s0,.4.2.5h0v.2Z"/>
    <path class="cls-21" d="M125.8,199.8h.8v.7c.2-.3.5-.5.7-.6s.5-.2.8-.2c.7,0,1.1.2,1.4.7.1.2.2.6.2,1.1v3h-.8v-3c0-.3,0-.5-.1-.7-.1-.3-.4-.4-.8-.4h-.5c-.2,0-.4.2-.6.4,0,.2-.2.3-.3.5v3.2h-.8v-4.7h0Z"/>
    <path class="cls-21" d="M130.8,198.1h.8v3.8l2-2h1l-1.8,1.8,1.9,3h-1l-1.5-2.4-.6.6v1.8h-.8v-6.5h0Z"/>
    <path class="cls-21" d="M134.8,205.6v-.4h5v.4h-5Z"/>
    <path class="cls-21" d="M140.8,203c0,.3,0,.5.2.6.2.2.6.4,1.1.4s.6,0,.8-.2.3-.3.3-.6,0-.4-.3-.5c-.1,0-.4-.1-.7-.2l-.6-.2c-.4-.1-.7-.2-.9-.3-.4-.2-.5-.5-.5-.9s.2-.8.5-1.1.8-.4,1.3-.4,1.2.2,1.6.6c.2.3.3.6.3.9h-.8c0-.2,0-.3-.2-.5s-.5-.3-1-.3-.5,0-.7.2c-.2.1-.2.3-.2.4s.1.4.3.5c.1,0,.3.1.5.2h.5c.6.3,1,.4,1.2.5.3.2.5.5.5.9s-.2.8-.5,1.1-.8.5-1.5.5-1.2-.2-1.5-.5-.4-.7-.5-1.2h.8,0Z"/>
    <path class="cls-21" d="M145,198.5h.8v1.3h.8v.6h-.8v3.1c0,.2,0,.3.2.3h.5v.6h-.6c-.4,0-.6,0-.8-.3s-.2-.4-.2-.7v-3.1h-.6v-.6h.6v-1.3h0Z"/>
    <path class="cls-21" d="M147.4,199.8h.8v.8c0-.2.2-.4.4-.6.2-.2.5-.3.8-.3h.2v.8h-.2c-.4,0-.7.1-.9.4-.2.3-.3.6-.3.9v2.7h-.8v-4.7h0Z"/>
    <path class="cls-21" d="M150.4,198.1h.8v.9h-.8v-.9ZM150.4,199.8h.8v4.7h-.8v-4.7Z"/>
    <path class="cls-21" d="M152.4,199.8h.8v.7c.2-.3.5-.5.7-.6s.5-.2.8-.2c.7,0,1.1.2,1.4.7.1.2.2.6.2,1.1v3h-.8v-3c0-.3,0-.5-.1-.7-.1-.3-.4-.4-.8-.4h-.5c-.2,0-.4.2-.6.4-.1.2-.2.3-.3.5v3.2h-.8v-4.7h0Z"/>
    <path class="cls-21" d="M160,200c.1.1.3.2.5.4v-.6h.7v4.3c0,.6,0,1.1-.3,1.4-.3.6-.9,1-1.9,1s-.9-.1-1.3-.3c-.3-.2-.5-.6-.6-1.1h.8c0,.2.1.4.2.5.2.2.5.3.8.3.6,0,1-.2,1.2-.6.1-.2.2-.7.1-1.4-.2.2-.4.4-.6.5s-.5.2-.9.2-.9-.2-1.3-.5-.6-1-.6-1.8.2-1.4.6-1.9.9-.7,1.4-.7.7,0,1,.3h.2ZM160.1,200.8c-.2-.3-.5-.4-.9-.4-.6,0-.9.3-1.1.8-.1.3-.2.6-.2,1.1s.1.9.3,1.2.5.4.9.4c.6,0,1-.3,1.2-.8.1-.3.2-.6.2-1,0-.6-.1-1-.4-1.3h0Z"/>
    <path class="cls-21" d="M164.4,197.9c-.5.9-.8,1.6-.9,2-.2.6-.3,1.4-.3,2.2s.1,1.6.4,2.3c.1.4.4,1.1.9,1.9h-.5c-.4-.7-.7-1.1-.8-1.3s-.2-.4-.3-.8c-.2-.4-.3-.9-.3-1.4v-.7c0-.9.1-1.6.4-2.3.2-.4.5-1.1,1.1-1.9h.6-.3Z"/>
    <path class="cls-21" d="M169.2,203c0,.3,0,.5-.2.7s-.3.4-.5.5-.4.2-.7.3c-.3,0-.6.1-.9.1h-1.5v-.8c.2,0,.5.1.7.2h1.5c.2,0,.3-.1.4-.2.1,0,.2-.2.2-.3v-.4c0-.2,0-.3-.1-.4,0-.1-.2-.2-.3-.3-.1,0-.3-.2-.5-.2s-.4-.1-.6-.2-.4-.2-.6-.2-.3-.2-.5-.3-.2-.3-.3-.4-.1-.4-.1-.6,0-.4.1-.6.2-.4.4-.5.4-.3.7-.4c.3,0,.6-.1,1-.1s.2,0,.3,0h.9v.7c-.2,0-.4-.1-.7-.1h-.6c-.4,0-.8,0-1,.2s-.3.4-.3.6,0,.3.1.4.2.2.3.3.3.2.5.2.4.1.6.2.4.2.6.2.3.2.5.3.2.3.3.4.1.4.1.6h.2Z"/>
    <path class="cls-21" d="M171.1,198.3v2.1h-.9v-2.1c-.1,0,.9,0,.9,0Z"/>
    <path class="cls-21" d="M173.4,206.3c.5-.9.8-1.6.9-2,.2-.6.3-1.4.3-2.2s-.1-1.6-.4-2.3c-.1-.4-.4-1.1-.9-1.9h.5c.4.7.7,1.2.8,1.3,0,.2.2.4.3.7.1.4.2.7.3,1.1s0,.7,0,1c0,.9-.1,1.6-.4,2.3-.2.4-.5,1.1-1.1,1.9h-.6.3Z"/>
    <path class="cls-21" d="M99.9,208.8h2.8c.8,0,1.3.2,1.6.7.2.3.3.6.3.9s0,.7-.3,1c0,.1-.3.3-.5.4.3.1.6.3.7.4.3.3.4.7.4,1.2s0,.8-.4,1.1c-.4.5-1,.8-1.9.8h-2.8v-6.5h.1ZM102.4,211.6c.4,0,.7,0,.9-.1.3-.2.5-.4.5-.9s-.2-.7-.5-.9c-.2,0-.5-.1-.9-.1h-1.6v2h1.6ZM102.7,214.6c.5,0,.9-.2,1.2-.5.2-.2.2-.4.2-.7,0-.5-.2-.8-.6-1-.2,0-.5-.1-.9-.1h-1.8v2.3h1.9Z"/>
    <path class="cls-21" d="M105.6,217.1c.5-.9.8-1.6.9-2,.2-.6.3-1.4.3-2.2s0-1.6-.4-2.3c-.2-.4-.4-1.1-.9-1.9h.5c.4.7.7,1.2.8,1.3,0,.2.2.4.3.7,0,.4.2.7.3,1.1s0,.7,0,1c0,.9,0,1.6-.4,2.3-.2.4-.5,1.1-1.1,1.9h-.6.3Z"/>
    <path class="cls-21" d="M120.9,210.8c.3.3.5.7.6,1.3h-.8c0-.3-.2-.5-.3-.7s-.4-.3-.8-.3-.9.2-1.1.7c0,.3-.2.7-.2,1.2s0,.9.3,1.2c.2.3.5.5.9.5s.6-.1.8-.3.3-.5.4-.8h.8c0,.6-.3,1.1-.7,1.4-.3.3-.8.4-1.3.4s-1.1-.2-1.5-.7-.6-1-.6-1.7.2-1.5.6-1.9.9-.7,1.5-.7,1,.1,1.3.4h0Z"/>
    <path class="cls-21" d="M125.8,211.1c.4.4.6,1,.6,1.8s-.2,1.4-.6,1.9-.9.7-1.7.7-1.2-.2-1.5-.7-.6-1-.6-1.8.2-1.4.6-1.9.9-.7,1.6-.7,1.1.2,1.5.6h0ZM125.3,214.2c.2-.4.3-.8.3-1.3s0-.8-.2-1.1c-.2-.4-.6-.6-1.1-.6s-.8.2-1,.6-.3.8-.3,1.3,0,.9.3,1.2.6.5,1,.5.9-.2,1.1-.6h-.1Z"/>
    <path class="cls-21" d="M127.3,210.6h.8v.7l.5-.5c.3-.2.6-.3.9-.3s.7,0,.9.3c.1.1.2.3.4.5l.6-.6c.2-.1.5-.2.8-.2.6,0,1.1.2,1.3.7.1.2.2.6.2,1v3.1h-.8v-3.3c0-.3,0-.5-.2-.6s-.4-.2-.6-.2-.6.1-.8.3-.3.6-.3,1v2.7h-.8v-3.1c0-.3,0-.6-.1-.7-.1-.2-.3-.3-.7-.3s-.6.1-.8.4c-.2.2-.4.6-.4,1.3v2.5h-.8v-4.7h0Z"/>
    <path class="cls-21" d="M134.8,210.6h.8v.6c.2-.2.3-.4.5-.5.3-.2.6-.3.9-.3.5,0,1,.2,1.4.6s.6,1,.6,1.8-.3,1.8-.8,2.2c-.3.3-.7.4-1.2.4s-.6,0-.9-.2c-.1,0-.3-.2-.5-.4v2.4h-.8v-6.6h0ZM137.8,214.3c.2-.3.4-.8.4-1.4s0-.7-.2-1c-.2-.5-.6-.8-1.1-.8s-.9.3-1.1.8c-.1.3-.2.7-.2,1.1s0,.7.2.9c.2.5.6.7,1.1.7s.7-.1.9-.5h0v.2Z"/>
    <path class="cls-21" d="M139.9,210.6h.8v.8c0-.2.2-.4.4-.6.2-.2.5-.3.8-.3h.2v.8h-.2c-.4,0-.7.1-.9.4-.2.3-.3.6-.3.9v2.7h-.8v-4.7h0Z"/>
    <path class="cls-21" d="M145.8,210.7c.3.2.6.4.7.6.2.2.3.5.3.8v1h-3.4c0,.5.1.9.3,1.1.2.3.5.4,1,.4s.7-.1,1-.4c.1-.2.2-.3.3-.6h.8c0,.2,0,.4-.2.6-.1.2-.2.4-.4.5-.2.2-.5.4-.9.5h-.6c-.6,0-1.1-.2-1.5-.6s-.6-1-.6-1.8.2-1.4.6-1.8.9-.7,1.6-.7.6,0,1,.2h0v.2ZM146,212.6c0-.3-.1-.6-.2-.8-.2-.4-.6-.6-1.1-.6s-.7.1-.9.4-.4.6-.4,1h2.6,0Z"/>
    <path class="cls-21" d="M148.3,213.8c0,.3,0,.5.2.6.2.2.6.4,1.1.4s.6,0,.8-.2.3-.3.3-.6,0-.4-.3-.5c-.1,0-.4-.1-.7-.2l-.6-.2c-.4-.1-.7-.2-.9-.3-.4-.2-.5-.5-.5-.9s.2-.8.5-1.1.8-.4,1.3-.4,1.2.2,1.6.6c.2.3.3.6.3.9h-.8c0-.2,0-.3-.2-.5s-.5-.3-1-.3-.5,0-.7.2c-.2.1-.2.3-.2.4s.1.4.3.5c.1,0,.3.1.5.2h.5c.6.3,1,.4,1.2.5.3.2.5.5.5.9s-.2.8-.5,1.1-.8.5-1.5.5-1.2-.2-1.5-.5-.4-.7-.5-1.2h.8,0Z"/>
    <path class="cls-21" d="M152.8,213.8c0,.3,0,.5.2.6.2.2.6.4,1.1.4s.6,0,.8-.2.3-.3.3-.6,0-.4-.3-.5c-.1,0-.4-.1-.7-.2l-.6-.2c-.4-.1-.7-.2-.9-.3-.4-.2-.5-.5-.5-.9s.2-.8.5-1.1.8-.4,1.3-.4,1.2.2,1.6.6c.2.3.3.6.3.9h-.8c0-.2,0-.3-.2-.5s-.5-.3-1-.3-.5,0-.7.2c-.2.1-.2.3-.2.4s.1.4.3.5c.1,0,.3.1.5.2h.5c.6.3,1,.4,1.2.5.3.2.5.5.5.9s-.2.8-.5,1.1-.8.5-1.5.5-1.2-.2-1.5-.5-.4-.7-.5-1.2h.8,0Z"/>
    <path class="cls-21" d="M159.8,210.7c.3.2.6.4.7.6.2.2.3.5.3.8v1h-3.4c0,.5.1.9.3,1.1.2.3.5.4,1,.4s.7-.1,1-.4c.1-.2.2-.3.3-.6h.8c0,.2,0,.4-.2.6-.1.2-.2.4-.4.5-.2.2-.5.4-.9.5h-.6c-.6,0-1.1-.2-1.5-.6s-.6-1-.6-1.8.2-1.4.6-1.8.9-.7,1.6-.7.6,0,1,.2h0v.2ZM160,212.6c0-.3-.1-.6-.2-.8-.2-.4-.6-.6-1.1-.6s-.7.1-.9.4-.4.6-.4,1h2.6,0Z"/>
    <path class="cls-21" d="M164.4,210.7c.1,0,.3.2.5.5v-2.4h.8v6.5h-.7v-.6c-.2.3-.4.5-.6.6s-.5.2-.9.2-1-.2-1.4-.7c-.4-.4-.6-1-.6-1.8s.2-1.3.5-1.8.9-.8,1.5-.8.7,0,.9.2h0ZM162.7,214.3c.2.3.6.5,1,.5s.7-.2.9-.5.4-.8.4-1.4-.1-1-.4-1.3c-.2-.3-.5-.4-.9-.4s-.7.1-1,.5c-.2.3-.4.8-.4,1.3s.1.9.3,1.3h0Z"/>
    <path class="cls-21" d="M166.3,216.4v-.4h5v.4h-5Z"/>
    <path class="cls-21" d="M171.8,208.8h.8v2.3c.2-.2.4-.4.6-.5.2-.1.5-.2.8-.2.6,0,1.1.2,1.4.6.4.4.6,1,.6,1.8s-.2,1.4-.5,1.9-.9.7-1.5.7-.7,0-.9-.3l-.5-.5v.6h-.7v-6.5h-.1ZM174.8,214.2c.2-.3.3-.8.3-1.3s-.1-.9-.3-1.2-.5-.5-.9-.5-.7.1-.9.4-.4.7-.4,1.3,0,.8.2,1.1c.2.5.6.8,1.2.8s.8-.2,1-.5h-.2Z"/>
    <path class="cls-21" d="M176.9,208.8h.8v.9h-.8v-.9ZM176.9,210.6h.8v4.7h-.8v-4.7Z"/>
    <path class="cls-21" d="M179,209.3h.8v1.3h.8v.6h-.8v3.1c0,.2,0,.3.2.3h.5v.6h-.6c-.4,0-.6,0-.8-.3s-.2-.4-.2-.7v-3.1h-.6v-.6h.6v-1.3h0Z"/>
    <path class="cls-21" d="M181.8,210.6l1.3,3.8,1.3-3.8h.9l-1.8,4.7h-.8l-1.7-4.7h.9,0Z"/>
    <path class="cls-21" d="M188.8,210.7c.3.2.6.4.7.6.2.2.3.5.3.8v1h-3.4c0,.5.1.9.3,1.1.2.3.5.4,1,.4s.7-.1,1-.4c.1-.2.2-.3.3-.6h.8c0,.2,0,.4-.2.6-.1.2-.2.4-.4.5-.2.2-.5.4-.9.5h-.6c-.6,0-1.1-.2-1.5-.6s-.6-1-.6-1.8.2-1.4.6-1.8.9-.7,1.6-.7.6,0,1,.2h0v.2ZM189.1,212.6c0-.3-.1-.6-.2-.8-.2-.4-.6-.6-1.1-.6s-.7.1-.9.4-.4.6-.4,1h2.6,0Z"/>
    <path class="cls-21" d="M194,210.8c.3.3.5.7.6,1.3h-.8c0-.3-.1-.5-.3-.7s-.4-.3-.8-.3-.9.2-1.1.7c-.1.3-.2.7-.2,1.2s.1.9.3,1.2.5.5.9.5.6-.1.8-.3.3-.5.4-.8h.8c0,.6-.3,1.1-.7,1.4s-.8.4-1.4.4-1.1-.2-1.5-.7c-.4-.4-.6-1-.6-1.7s.2-1.5.6-1.9c.4-.5.9-.7,1.5-.7s1,.1,1.3.4h.2Z"/>
    <path class="cls-21" d="M195.5,209.3h.8v1.3h.8v.6h-.8v3.1c0,.2,0,.3.2.3h.5v.6h-.6c-.4,0-.6,0-.8-.3s-.2-.4-.2-.7v-3.1h-.6v-.6h.6v-1.3h0Z"/>
    <path class="cls-21" d="M201.3,211.1c.4.4.6,1,.6,1.8s-.2,1.4-.6,1.9-.9.7-1.7.7-1.1-.2-1.5-.7-.6-1-.6-1.8.2-1.4.6-1.9.9-.7,1.6-.7,1.1.2,1.5.6h0ZM200.8,214.2c.2-.4.3-.8.3-1.3s0-.8-.2-1.1c-.2-.4-.6-.6-1.1-.6s-.8.2-1,.6c-.2.4-.3.8-.3,1.3s.1.9.3,1.2.6.5,1,.5.9-.2,1.1-.6h-.1Z"/>
    <path class="cls-21" d="M202.9,210.6h.8v.8c0-.2.2-.4.4-.6.2-.2.5-.3.8-.3h.2v.8h-.2c-.4,0-.7.1-.9.4-.2.3-.3.6-.3.9v2.7h-.8v-4.7h0Z"/>
    <path class="cls-21" d="M208,208.7c-.5.9-.8,1.6-.9,2-.2.6-.3,1.4-.3,2.2s.1,1.6.4,2.3c.1.4.4,1.1.9,1.9h-.5c-.4-.7-.7-1.1-.8-1.3s-.2-.4-.3-.8c-.2-.4-.3-.9-.3-1.4v-.7c0-.9.1-1.6.4-2.3.2-.4.5-1.1,1.1-1.9h.6-.3Z"/>
    <path class="cls-21" d="M213,215.3h-.8v-3.6c-.1,0-.2-1.4-.2-1.4l-.3.8-.9,2.3h-.5l-.8-2.2-.3-.9v4.9h-.8l.3-5.7h.9l.8,2.2.2.7.2-.7.8-2.2h.9l.3,5.7h.2Z"/>
    <path class="cls-21" d="M215.7,209.1v2.1h-.9v-2.1c-.1,0,.9,0,.9,0Z"/>
    <path class="cls-21" d="M218,217.1c.5-.9.8-1.6.9-2,.2-.6.3-1.4.3-2.2s-.1-1.6-.4-2.3c-.1-.4-.4-1.1-.9-1.9h.5c.4.7.7,1.2.8,1.3,0,.2.2.4.3.7.1.4.2.7.3,1.1s0,.7,0,1c0,.9-.1,1.6-.4,2.3-.2.4-.5,1.1-1.1,1.9h-.6.3Z"/>
    <path class="cls-21" d="M104.5,220.1c.4.4.7.9.7,1.5h-.8c0-.4-.3-.8-.6-1-.3-.2-.7-.4-1.2-.4s-1.1.2-1.5.7c-.4.4-.6,1.1-.6,2.1s.2,1.4.5,1.8.9.7,1.6.7,1.1-.2,1.4-.7c.2-.3.3-.6.4-1h.8c0,.7-.3,1.2-.8,1.7-.5.6-1.2.8-2.1.8s-1.4-.2-1.9-.7c-.7-.6-1-1.5-1-2.8s.2-1.7.8-2.3c.5-.7,1.3-1,2.2-1s1.4.2,1.9.6h.2Z"/>
    <path class="cls-21" d="M106.1,227.9c.5-.9.8-1.6.9-2,.2-.6.3-1.4.3-2.2s0-1.6-.4-2.3c-.2-.4-.4-1.1-.9-1.9h.5c.4.7.7,1.2.8,1.3,0,.2.2.4.3.7,0,.4.2.7.3,1.1s0,.7,0,1c0,.9,0,1.6-.4,2.3-.2.4-.5,1.1-1.1,1.9h-.6.3Z"/>
    <path class="cls-21" d="M120.9,221.6c.3.3.5.7.6,1.3h-.8c0-.3-.2-.5-.3-.7s-.4-.3-.8-.3-.9.2-1.1.7c0,.3-.2.7-.2,1.2s0,.9.3,1.2c.2.3.5.5.9.5s.6-.1.8-.3.3-.5.4-.8h.8c0,.6-.3,1.1-.7,1.4-.3.3-.8.4-1.3.4s-1.1-.2-1.5-.7c-.4-.4-.6-1-.6-1.7s.2-1.5.6-1.9.9-.7,1.5-.7,1,.1,1.3.4h0Z"/>
    <path class="cls-21" d="M125.8,221.9c.4.4.6,1,.6,1.8s-.2,1.4-.6,1.9-.9.7-1.7.7-1.2-.2-1.5-.7-.6-1-.6-1.8.2-1.4.6-1.9.9-.7,1.6-.7,1.1.2,1.5.6h0ZM125.3,225c.2-.4.3-.8.3-1.3s0-.8-.2-1.1c-.2-.4-.6-.6-1.1-.6s-.8.2-1,.6c-.2.4-.3.8-.3,1.3s0,.9.3,1.2.6.5,1,.5.9-.2,1.1-.6h-.1Z"/>
    <path class="cls-21" d="M127.3,221.4h.8v.7l.5-.5c.3-.2.6-.3.9-.3s.7,0,.9.3c.1.1.2.3.4.5l.6-.6c.2-.1.5-.2.8-.2.6,0,1.1.2,1.3.7.1.2.2.6.2,1v3.1h-.8v-3.3c0-.3,0-.5-.2-.6s-.4-.2-.6-.2-.6.1-.8.3-.3.6-.3,1v2.7h-.8v-3.1c0-.3,0-.6-.1-.7-.1-.2-.3-.3-.7-.3s-.6.1-.8.4c-.2.2-.4.6-.4,1.3v2.5h-.8v-4.7h0Z"/>
    <path class="cls-21" d="M134.8,221.4h.8v.6c.2-.2.3-.4.5-.5.3-.2.6-.3.9-.3.5,0,1,.2,1.4.6s.6,1,.6,1.8-.3,1.8-.8,2.2c-.3.3-.7.4-1.2.4s-.6,0-.9-.2c-.1,0-.3-.2-.5-.4v2.4h-.8v-6.6h0ZM137.8,225.1c.2-.3.4-.8.4-1.4s0-.7-.2-1c-.2-.5-.6-.8-1.1-.8s-.9.3-1.1.8c-.1.3-.2.7-.2,1.1s0,.7.2.9c.2.5.6.7,1.1.7s.7-.2.9-.5h0v.2Z"/>
    <path class="cls-21" d="M139.9,221.4h.8v.8c0-.2.2-.4.4-.6.2-.2.5-.3.8-.3h.2v.8h-.2c-.4,0-.7.1-.9.4-.2.3-.3.6-.3.9v2.7h-.8v-4.7h0Z"/>
    <path class="cls-21" d="M145.8,221.5c.3.2.6.4.7.6.2.2.3.5.3.8v1h-3.4c0,.5.1.9.3,1.1.2.3.5.4,1,.4s.7-.1,1-.4c.1-.2.2-.3.3-.6h.8c0,.2,0,.4-.2.6-.1.2-.2.4-.4.5-.2.2-.5.4-.9.5h-.6c-.6,0-1.1-.2-1.5-.6s-.6-1-.6-1.8.2-1.4.6-1.8.9-.7,1.6-.7.6,0,1,.2h0v.2ZM146,223.4c0-.3-.1-.6-.2-.8-.2-.4-.6-.6-1.1-.6s-.7.1-.9.4c-.2.3-.4.6-.4,1h2.6,0Z"/>
    <path class="cls-21" d="M148.3,224.6c0,.3,0,.5.2.6.2.2.6.4,1.1.4s.6,0,.8-.2.3-.3.3-.6,0-.4-.3-.5c-.1,0-.4-.1-.7-.2l-.6-.2c-.4-.1-.7-.2-.9-.3-.4-.2-.5-.5-.5-.9s.2-.8.5-1.1.8-.4,1.3-.4,1.2.2,1.6.6c.2.3.3.6.3.9h-.8c0-.2,0-.3-.2-.5s-.5-.3-1-.3-.5,0-.7.2c-.2.1-.2.3-.2.4s.1.4.3.5c.1,0,.3.1.5.2h.5c.6.3,1,.4,1.2.5.3.2.5.5.5.9s-.2.8-.5,1.1-.8.5-1.5.5-1.2-.2-1.5-.5-.4-.7-.5-1.2h.8,0Z"/>
    <path class="cls-21" d="M152.8,224.6c0,.3,0,.5.2.6.2.2.6.4,1.1.4s.6,0,.8-.2.3-.3.3-.6,0-.4-.3-.5c-.1,0-.4-.1-.7-.2l-.6-.2c-.4-.1-.7-.2-.9-.3-.4-.2-.5-.5-.5-.9s.2-.8.5-1.1.8-.4,1.3-.4,1.2.2,1.6.6c.2.3.3.6.3.9h-.8c0-.2,0-.3-.2-.5s-.5-.3-1-.3-.5,0-.7.2c-.2.1-.2.3-.2.4s.1.4.3.5c.1,0,.3.1.5.2h.5c.6.3,1,.4,1.2.5.3.2.5.5.5.9s-.2.8-.5,1.1-.8.5-1.5.5-1.2-.2-1.5-.5-.4-.7-.5-1.2h.8,0Z"/>
    <path class="cls-21" d="M159.8,221.5c.3.2.6.4.7.6.2.2.3.5.3.8v1h-3.4c0,.5.1.9.3,1.1.2.3.5.4,1,.4s.7-.1,1-.4c.1-.2.2-.3.3-.6h.8c0,.2,0,.4-.2.6-.1.2-.2.4-.4.5-.2.2-.5.4-.9.5h-.6c-.6,0-1.1-.2-1.5-.6s-.6-1-.6-1.8.2-1.4.6-1.8.9-.7,1.6-.7.6,0,1,.2h0v.2ZM160,223.4c0-.3-.1-.6-.2-.8-.2-.4-.6-.6-1.1-.6s-.7.1-.9.4c-.2.3-.4.6-.4,1h2.6,0Z"/>
    <path class="cls-21" d="M164.4,221.5c.1,0,.3.2.5.5v-2.4h.8v6.5h-.7v-.6c-.2.3-.4.5-.6.6s-.5.2-.9.2-1-.2-1.4-.7c-.4-.4-.6-1-.6-1.8s.2-1.3.5-1.8.9-.8,1.5-.8.7,0,.9.2h0ZM162.7,225.1c.2.3.6.5,1,.5s.7-.2.9-.5.4-.8.4-1.4-.1-1-.4-1.3c-.2-.3-.5-.4-.9-.4s-.7.1-1,.5c-.2.3-.4.8-.4,1.3s.1.9.3,1.3h0Z"/>
    <path class="cls-21" d="M166.3,227.2v-.4h5v.4h-5Z"/>
    <path class="cls-21" d="M171.8,219.6h.8v2.3c.2-.2.4-.4.6-.5.2-.1.5-.2.8-.2.6,0,1.1.2,1.4.6.4.4.6,1,.6,1.8s-.2,1.4-.5,1.9-.9.7-1.5.7-.7,0-.9-.3l-.5-.5v.6h-.7v-6.5h-.1ZM174.8,225c.2-.3.3-.8.3-1.4s-.1-.9-.3-1.2-.5-.5-.9-.5-.7.1-.9.4c-.3.3-.4.7-.4,1.3s0,.8.2,1.1c.2.5.6.8,1.2.8s.8-.2,1-.5h-.2Z"/>
    <path class="cls-21" d="M176.9,219.7h.8v.9h-.8v-.9ZM176.9,221.4h.8v4.7h-.8v-4.7Z"/>
    <path class="cls-21" d="M179,220.1h.8v1.3h.8v.6h-.8v3.1c0,.2,0,.3.2.3h.5v.6h-.6c-.4,0-.6,0-.8-.3s-.2-.4-.2-.7v-3.1h-.6v-.6h.6v-1.3h0Z"/>
    <path class="cls-21" d="M181.8,221.4l1.3,3.8,1.3-3.8h.9l-1.8,4.7h-.8l-1.7-4.7h.9,0Z"/>
    <path class="cls-21" d="M188.8,221.5c.3.2.6.4.7.6.2.2.3.5.3.8v1h-3.4c0,.5.1.9.3,1.1.2.3.5.4,1,.4s.7-.1,1-.4c.1-.2.2-.3.3-.6h.8c0,.2,0,.4-.2.6-.1.2-.2.4-.4.5-.2.2-.5.4-.9.5h-.6c-.6,0-1.1-.2-1.5-.6s-.6-1-.6-1.8.2-1.4.6-1.8.9-.7,1.6-.7.6,0,1,.2h0v.2ZM189.1,223.4c0-.3-.1-.6-.2-.8-.2-.4-.6-.6-1.1-.6s-.7.1-.9.4c-.2.3-.4.6-.4,1h2.6,0Z"/>
    <path class="cls-21" d="M194,221.6c.3.3.5.7.6,1.3h-.8c0-.3-.1-.5-.3-.7s-.4-.3-.8-.3-.9.2-1.1.7c-.1.3-.2.7-.2,1.2s.1.9.3,1.2.5.5.9.5.6-.1.8-.3.3-.5.4-.8h.8c0,.6-.3,1.1-.7,1.4s-.8.4-1.4.4-1.1-.2-1.5-.7c-.4-.4-.6-1-.6-1.7s.2-1.5.6-1.9c.4-.5.9-.7,1.5-.7s1,.1,1.3.4h.2Z"/>
    <path class="cls-21" d="M195.5,220.1h.8v1.3h.8v.6h-.8v3.1c0,.2,0,.3.2.3h.5v.6h-.6c-.4,0-.6,0-.8-.3s-.2-.4-.2-.7v-3.1h-.6v-.6h.6v-1.3h0Z"/>
    <path class="cls-21" d="M201.3,221.9c.4.4.6,1,.6,1.8s-.2,1.4-.6,1.9c-.4.5-.9.7-1.7.7s-1.1-.2-1.5-.7-.6-1-.6-1.8.2-1.4.6-1.9c.4-.5.9-.7,1.6-.7s1.1.2,1.5.6h0ZM200.8,225c.2-.4.3-.8.3-1.3s0-.8-.2-1.1c-.2-.4-.6-.6-1.1-.6s-.8.2-1,.6c-.2.4-.3.8-.3,1.3s.1.9.3,1.2.6.5,1,.5.9-.2,1.1-.6h-.1Z"/>
    <path class="cls-21" d="M202.9,221.4h.8v.8c0-.2.2-.4.4-.6.2-.2.5-.3.8-.3h.2v.8h-.2c-.4,0-.7.1-.9.4-.2.3-.3.6-.3.9v2.7h-.8v-4.7h0Z"/>
    <path class="cls-21" d="M208,219.5c-.5.9-.8,1.6-.9,2-.2.6-.3,1.4-.3,2.2s.1,1.6.4,2.3c.1.4.4,1.1.9,1.9h-.5c-.4-.7-.7-1.1-.8-1.3s-.2-.4-.3-.8c-.2-.4-.3-.9-.3-1.4v-.7c0-.9.1-1.6.4-2.3.2-.4.5-1.1,1.1-1.9h.6-.3Z"/>
    <path class="cls-21" d="M213,226.1h-1.1l-2.1-2.4v2.4h-.8v-6.2h.8v3.8l2-2h1l-2.1,2,2.2,2.4h.1Z"/>
    <path class="cls-21" d="M217.6,226.1h-3.3v-5.7h.8v5.1h2.5v.7h0Z"/>
    <path class="cls-21" d="M222.6,225.9c-.5.2-.9.3-1.4.3-.8,0-1.4-.2-1.9-.7-.4-.5-.6-1.2-.6-2.1s0-.9.2-1.2.3-.7.5-.9.5-.5.8-.6.7-.2,1.1-.2h.7c.2,0,.4.1.7.2v.8c-.2-.1-.4-.2-.6-.3h-.7c-.2,0-.5,0-.7.1s-.4.2-.6.4c-.1.2-.3.4-.4.7,0,.3-.1.6-.1.9,0,.8.1,1.3.4,1.7s.7.6,1.3.6h.7c.2,0,.4-.1.6-.2v.7h0v-.2Z"/>
    <path class="cls-21" d="M227.6,222.1c0,.2,0,.5-.1.7,0,.2-.2.4-.4.6-.2.2-.4.3-.7.4-.3.1-.6.2-1,.2h-.7v2.1h-.8v-5.7h2.4c.3,0,.5.2.7.3s.4.3.5.5.2.5.2.8h-.1ZM226.8,222.2c0-.4-.1-.6-.4-.9s-.6-.3-1-.3h-.8v2.4h.7c.5,0,.8-.1,1.1-.3s.4-.5.4-.9h0Z"/>
    <path class="cls-21" d="M228.4,227.9c.5-.9.8-1.6.9-2,.2-.6.3-1.4.3-2.2s-.1-1.6-.4-2.3c-.1-.4-.4-1.1-.9-1.9h.5c.4.7.7,1.2.8,1.3,0,.2.2.4.3.7.1.4.2.7.3,1.1s0,.7,0,1c0,.9-.1,1.6-.4,2.3-.2.4-.5,1.1-1.1,1.9h-.6.3Z"/>
    <path class="cls-20" d="M233.6,223.3h5.1v.6h-5.1v-.6Z"/>
    <path class="cls-20" d="M245.1,221.9c.4.4.6,1,.6,1.8s-.2,1.4-.6,1.9c-.4.5-.9.7-1.7.7s-1.1-.2-1.5-.7-.6-1-.6-1.8.2-1.4.6-1.9c.4-.5.9-.7,1.6-.7s1.1.2,1.5.6h0ZM244.6,225c.2-.4.3-.8.3-1.3s0-.8-.2-1.1c-.2-.4-.6-.6-1.1-.6s-.8.2-1,.6c-.2.4-.3.8-.3,1.3s.1.9.3,1.2.6.5,1,.5.9-.2,1.1-.6h-.1Z"/>
    <path class="cls-20" d="M246.6,221.4h.8v.6c.2-.2.3-.4.5-.5.3-.2.6-.3.9-.3.5,0,1,.2,1.4.6s.6,1,.6,1.8-.3,1.8-.8,2.2c-.3.3-.7.4-1.2.4s-.6,0-.9-.2c-.1,0-.3-.2-.5-.4v2.4h-.8v-6.6h0ZM249.6,225.1c.2-.3.4-.8.4-1.4s0-.7-.2-1c-.2-.5-.6-.8-1.1-.8s-.9.3-1.1.8c-.1.3-.2.7-.2,1.1s0,.7.2.9c.2.5.6.7,1.1.7s.7-.2.9-.5h0v.2Z"/>
    <path class="cls-20" d="M251.8,220.1h.8v1.3h.8v.6h-.8v3.1c0,.2,0,.3.2.3h.5v.6h-.6c-.4,0-.6,0-.8-.3s-.2-.4-.2-.7v-3.1h-.6v-.6h.6v-1.3h0Z"/>
    <path class="cls-20" d="M254.2,219.7h.8v.9h-.8v-.9ZM254.2,221.4h.8v4.7h-.8v-4.7Z"/>
    <path class="cls-20" d="M259.6,221.9c.4.4.6,1,.6,1.8s-.2,1.4-.5,1.9-.9.7-1.7.7-1.1-.2-1.5-.7-.6-1-.6-1.8.2-1.4.6-1.9.9-.7,1.6-.7,1.1.2,1.5.6h0ZM259.1,225c.2-.4.3-.8.3-1.3s0-.8-.2-1.1c-.2-.4-.6-.6-1.1-.6s-.8.2-1,.6c-.2.4-.3.8-.3,1.3s.1.9.3,1.2.6.5,1,.5.9-.2,1.1-.6h0Z"/>
    <path class="cls-20" d="M261.2,221.4h.8v.7c.2-.3.5-.5.7-.6s.5-.2.8-.2c.7,0,1.1.2,1.4.7.1.2.2.6.2,1.1v3h-.8v-3c0-.3,0-.5-.1-.7-.1-.3-.4-.4-.8-.4h-.5c-.2,0-.4.2-.6.4-.1.2-.2.3-.3.5v3.2h-.8v-4.7h0Z"/>
    <path class="cls-20" d="M268.7,223.3c.2,0,.3-.1.4-.2v-.3c0-.3-.1-.5-.3-.6s-.5-.2-.8-.2-.7.1-.9.3c-.1.1-.2.3-.2.6h-.7c0-.6.2-1,.6-1.2s.8-.3,1.3-.3,1,.1,1.4.3c.3.2.5.5.5,1v2.9c0,0,.1,0,.2,0h.2v.6h-.6c-.3,0-.5-.1-.6-.3,0-.1-.1-.2-.1-.4-.2.2-.4.4-.7.6-.3.1-.6.2-1,.2s-.8-.1-1.1-.4c-.3-.3-.4-.6-.4-1s.1-.8.4-1,.6-.4,1.1-.4l1.3-.2h0ZM267,225.4c.2.1.4.2.6.2s.5,0,.8-.2c.4-.2.7-.6.7-1.1v-.6c-.1,0-.2.1-.4.1h-1c-.3,0-.5.2-.6.2-.2.1-.4.4-.4.7s0,.4.2.5h0v.2Z"/>
    <path class="cls-20" d="M271.2,219.7h.8v6.5h-.8v-6.5Z"/>
    <path class="cls-20" d="M276.1,220c.2-.3.5-.4,1.1-.4h.3v.7h-.3c-.2,0-.4,0-.4.2v.9h.8v.6h-.8v4.1h-.8v-4.1h-.6v-.6h.6v-.7c0-.3,0-.6.2-.7h-.1Z"/>
    <path class="cls-20" d="M281.6,221.9c.4.4.6,1,.6,1.8s-.2,1.4-.5,1.9-.9.7-1.7.7-1.1-.2-1.5-.7-.6-1-.6-1.8.2-1.4.6-1.9.9-.7,1.6-.7,1.1.2,1.5.6h0ZM281.1,225c.2-.4.3-.8.3-1.3s0-.8-.2-1.1c-.2-.4-.6-.6-1.1-.6s-.8.2-1,.6c-.2.4-.3.8-.3,1.3s.1.9.3,1.2.6.5,1,.5.9-.2,1.1-.6h0Z"/>
    <path class="cls-20" d="M283.2,221.4h.8v.8c0-.2.2-.4.5-.6.2-.2.5-.3.8-.3h.2v.8h-.2c-.4,0-.7.1-.9.4-.2.3-.3.6-.3.9v2.7h-.8v-4.7h-.1Z"/>
    <path class="cls-20" d="M289.2,224.6c0,.3,0,.5.2.6.2.2.6.4,1.1.4s.6,0,.8-.2.3-.3.3-.6,0-.4-.3-.5c-.1,0-.3-.1-.7-.2l-.6-.2c-.4-.1-.7-.2-.9-.3-.4-.2-.5-.5-.5-.9s.2-.8.5-1.1.8-.4,1.3-.4,1.2.2,1.5.6c.2.3.3.6.3.9h-.8c0-.2,0-.3-.2-.5s-.5-.3-1-.3-.5,0-.7.2-.2.3-.2.4.1.4.3.5c.1,0,.3.1.5.2h.5c.6.3,1,.4,1.2.5.3.2.5.5.5.9s-.2.8-.5,1.1-.8.5-1.5.5-1.2-.2-1.5-.5-.5-.7-.5-1.2h.9Z"/>
    <path class="cls-20" d="M293.4,220.1h.8v1.3h.8v.6h-.8v3.1c0,.2,0,.3.2.3h.5v.6h-.6c-.4,0-.6,0-.8-.3s-.2-.4-.2-.7v-3.1h-.6v-.6h.6v-1.3h0Z"/>
    <path class="cls-20" d="M295.7,221.4h.8v.8c0-.2.2-.4.5-.6.2-.2.5-.3.8-.3h.2v.8h-.2c-.4,0-.7.1-.9.4-.2.3-.3.6-.3.9v2.7h-.8v-4.7h-.1Z"/>
    <path class="cls-20" d="M301.6,221.5c.3.2.5.4.7.6.2.2.3.5.3.8v1h-3.4c0,.5.1.9.3,1.1s.5.4,1,.4.7-.1,1-.4c.1-.2.2-.3.3-.6h.8c0,.2,0,.4-.2.6-.1.2-.2.4-.4.5-.2.2-.5.4-.9.5h-.6c-.6,0-1.1-.2-1.5-.6-.4-.4-.6-1-.6-1.8s.2-1.4.6-1.8c.4-.5.9-.7,1.6-.7s.6,0,1,.2h0v.2ZM301.9,223.4c0-.3-.1-.6-.2-.8-.2-.4-.6-.6-1.1-.6s-.7.1-.9.4c-.2.3-.4.6-.4,1h2.6Z"/>
    <path class="cls-20" d="M306.2,223.3c.2,0,.3-.1.4-.2v-.3c0-.3-.1-.5-.3-.6s-.5-.2-.8-.2-.7.1-.9.3c-.1.1-.2.3-.2.6h-.7c0-.6.2-1,.6-1.2s.8-.3,1.3-.3,1,.1,1.4.3c.3.2.5.5.5,1v2.9c0,0,.1,0,.2,0h.2v.6h-.6c-.3,0-.5-.1-.6-.3,0-.1-.1-.2-.1-.4-.2.2-.4.4-.7.6-.3.1-.6.2-1,.2s-.8-.1-1.1-.4c-.3-.3-.4-.6-.4-1s.1-.8.4-1,.6-.4,1.1-.4l1.3-.2h0ZM304.6,225.4c.2.1.4.2.6.2s.5,0,.8-.2c.4-.2.7-.6.7-1.1v-.6c-.1,0-.2.1-.4.1h-1c-.3,0-.5.2-.6.2-.2.1-.4.4-.4.7s0,.4.2.5h0v.2Z"/>
    <path class="cls-20" d="M308.7,221.4h.8v.7c.2-.2.4-.4.5-.5.3-.2.6-.3.9-.3s.7,0,.9.3c.1.1.2.3.4.5.2-.2.4-.4.6-.6s.5-.2.8-.2c.6,0,1.1.2,1.3.7.1.2.2.6.2,1v3.1h-.8v-3.3c0-.3,0-.5-.2-.6s-.4-.2-.6-.2-.6.1-.8.3c-.2.2-.3.6-.3,1v2.7h-.8v-3.1c0-.3,0-.6-.1-.7-.1-.2-.3-.3-.7-.3s-.6.1-.8.4c-.2.2-.4.6-.4,1.3v2.5h-.8v-4.7h-.1Z"/>
    <path class="cls-20" d="M316.2,219.7h.8v.9h-.8v-.9ZM316.2,221.4h.8v4.7h-.8v-4.7Z"/>
    <path class="cls-20" d="M318.2,221.4h.8v.7c.2-.3.5-.5.7-.6s.5-.2.8-.2c.7,0,1.1.2,1.4.7.1.2.2.6.2,1.1v3h-.8v-3c0-.3,0-.5-.1-.7-.1-.3-.4-.4-.8-.4h-.5c-.2,0-.4.2-.6.4-.1.2-.2.3-.3.5v3.2h-.8v-4.7h0Z"/>
    <path class="cls-20" d="M325.8,221.6c.1.1.3.2.5.4v-.6h.7v4.3c0,.6,0,1.1-.3,1.4-.3.6-.9,1-1.9,1s-.9-.1-1.3-.3-.5-.6-.6-1.1h.8c0,.2.1.4.2.5.2.2.5.3.8.3.6,0,1-.2,1.2-.6.1-.2.2-.7.1-1.4-.2.2-.4.4-.6.5s-.5.2-.9.2-1-.2-1.3-.5c-.4-.4-.6-1-.6-1.8s.2-1.4.6-1.9c.4-.4.9-.7,1.4-.7s.7,0,1,.3h.2ZM325.9,222.4c-.2-.3-.5-.4-.9-.4s-.9.3-1.1.8c-.1.3-.2.6-.2,1.1s.1.9.3,1.2c.2.3.5.4.9.4.6,0,1-.3,1.2-.8.1-.3.2-.6.2-1,0-.6-.1-1-.4-1.3h0Z"/>
  </g>
  <g class="cls-14">
    <g class="cls-14">
      <text class="cls-12" transform="translate(30.5 94.3)"><tspan x="0" y="0">M</tspan></text>
    </g>
    <g class="cls-14">
      <text class="cls-6" transform="translate(34.9 94.3)"><tspan x="0" y="0">,</tspan></text>
    </g>
    <g class="cls-14">
      <text class="cls-12" transform="translate(37.1 94.3)"><tspan x="0" y="0">S</tspan></text>
    </g>
  </g>
  <g class="cls-14">
    <g class="cls-14">
      <text class="cls-11" transform="translate(55.5 26.4)"><tspan x="0" y="0">M</tspan></text>
    </g>
    <g class="cls-14">
      <text class="cls-3" transform="translate(58.9 26.4)"><tspan x="0" y="0">&apos;</tspan></text>
    </g>
  </g>
  <g class="cls-14">
    <g class="cls-14">
      <text class="cls-3" transform="translate(149.8 26.4)"><tspan x="0" y="0">S</tspan></text>
    </g>
    <g class="cls-14">
      <text class="cls-12" transform="translate(153 26.4)"><tspan x="0" y="0">&apos;</tspan></text>
    </g>
  </g>
  <g class="cls-14">
    <g class="cls-14">
      <text class="cls-7" transform="translate(76 176.7)"><tspan x="0" y="0">M</tspan></text>
    </g>
    <g class="cls-14">
      <text class="cls-7" transform="translate(84 176.7)"><tspan x="0" y="0">B</tspan></text>
    </g>
    <g class="cls-14">
      <text class="cls-7" transform="translate(89.5 176.7)"><tspan x="0" y="0">W</tspan></text>
    </g>
    <g class="cls-14">
      <text class="cls-7" transform="translate(98.3 176.7)"><tspan x="0" y="0">T m</tspan></text>
    </g>
    <g class="cls-14">
      <text class="cls-7" transform="translate(113.7 176.7)"><tspan x="0" y="0">a</tspan></text>
    </g>
    <g class="cls-14">
      <text class="cls-7" transform="translate(118.5 176.7)"><tspan x="0" y="0">t</tspan></text>
    </g>
    <g class="cls-14">
      <text class="cls-7" transform="translate(121.8 176.7)"><tspan x="0" y="0">r</tspan></text>
    </g>
    <g class="cls-14">
      <text class="cls-7" transform="translate(125.1 176.7)"><tspan x="0" y="0">ix</tspan></text>
    </g>
  </g>
</svg>